<svg width="295" height="295" viewBox="0 0 295 295" fill="none" xmlns="http://www.w3.org/2000/svg">
<rect width="295" height="295" rx="50" fill="white"/>
<path d="M59.9591 190.06C59.6666 189.733 59.9073 189.213 60.3457 189.226L73.7632 189.614C73.8911 189.617 74.0155 189.572 74.1108 189.486L180.86 93.6107C180.961 93.5195 181.021 93.3907 181.026 93.2541L182.137 59.4226C182.152 58.9713 182.708 58.7685 183.008 59.1048L222.143 102.928C222.435 103.255 222.196 103.774 221.759 103.763L189.703 102.976C189.576 102.973 189.452 103.019 189.358 103.104L82.5678 199.016C82.4905 199.085 82.4366 199.177 82.4138 199.279L79.7647 211.053C79.6754 211.45 79.1763 211.58 78.9057 211.277L59.9591 190.06Z" fill="#1A1A1A" stroke="#1A1A1A" stroke-width="10"/>
<path d="M199.742 161.141C200.11 161.553 200.075 162.186 199.664 162.555L136.714 219.093C136.303 219.462 135.672 219.428 135.304 219.016L102.21 181.957C101.842 181.545 101.877 180.912 102.288 180.543L165.238 124.005C165.649 123.636 166.28 123.671 166.648 124.083L199.742 161.141ZM115.887 175.174C115.476 175.544 115.441 176.177 115.809 176.589L136.965 200.28C137.333 200.692 137.964 200.727 138.375 200.357L181.601 161.535C182.012 161.166 182.047 160.533 181.679 160.121L160.522 136.429C160.155 136.017 159.523 135.983 159.112 136.352L115.887 175.174Z" fill="#1A1A1A"/>
<path d="M199.664 162.555L196.334 158.826L133.383 215.364L136.714 219.093L140.044 222.823L202.994 166.285L199.664 162.555ZM135.304 219.016L139.024 215.675L105.93 178.616L102.21 181.957L98.4901 185.298L131.584 222.357L135.304 219.016ZM102.288 180.543L105.618 184.272L168.568 127.734L165.238 124.005L161.908 120.275L98.9575 176.813L102.288 180.543ZM166.648 124.083L162.928 127.424L196.022 164.482L199.742 161.141L203.462 157.8L170.368 120.742L166.648 124.083ZM115.809 176.589L112.089 179.93L133.245 203.621L136.965 200.28L140.685 196.939L119.529 173.248L115.809 176.589ZM138.375 200.357L141.706 204.087L184.931 165.264L181.601 161.535L178.271 157.805L135.045 196.628L138.375 200.357ZM181.679 160.121L185.399 156.78L164.242 133.088L160.522 136.429L156.803 139.77L177.959 163.462L181.679 160.121ZM159.112 136.352L155.782 132.622L112.556 171.445L115.887 175.174L119.217 178.904L162.443 140.081L159.112 136.352ZM160.522 136.429L164.242 133.088C162.035 130.617 158.247 130.408 155.782 132.622L159.112 136.352L162.443 140.081C160.799 141.557 158.274 141.418 156.803 139.77L160.522 136.429ZM181.601 161.535L184.931 165.264C187.397 163.05 187.606 159.251 185.399 156.78L181.679 160.121L177.959 163.462C176.488 161.814 176.627 159.281 178.271 157.805L181.601 161.535ZM136.965 200.28L133.245 203.621C135.452 206.092 139.24 206.301 141.706 204.087L138.375 200.357L135.045 196.628C136.688 195.152 139.214 195.291 140.685 196.939L136.965 200.28ZM115.809 176.589L119.529 173.248C121 174.895 120.861 177.428 119.217 178.904L115.887 175.174L112.556 171.445C110.091 173.659 109.882 177.458 112.089 179.93L115.809 176.589ZM165.238 124.005L168.568 127.734C166.925 129.21 164.4 129.071 162.928 127.424L166.648 124.083L170.368 120.742C168.161 118.27 164.373 118.061 161.908 120.275L165.238 124.005ZM102.21 181.957L105.93 178.616C107.401 180.264 107.262 182.796 105.618 184.272L102.288 180.543L98.9575 176.813C96.4922 179.028 96.2829 182.826 98.4901 185.298L102.21 181.957ZM136.714 219.093L133.383 215.364C135.027 213.888 137.552 214.027 139.024 215.675L135.304 219.016L131.584 222.357C133.791 224.828 137.579 225.037 140.044 222.823L136.714 219.093ZM199.664 162.555L202.994 166.285C205.46 164.071 205.669 160.272 203.462 157.8L199.742 161.141L196.022 164.482C194.55 162.835 194.69 160.302 196.334 158.826L199.664 162.555Z" fill="#1A1A1A"/>
</svg>
