<svg width="24" height="24" viewBox="0 0 24 24" fill="none" xmlns="http://www.w3.org/2000/svg">
<path d="M12.0001 7.20039C10.6746 7.20039 9.6001 6.12587 9.6001 4.80039C9.6001 3.47491 10.6746 2.40039 12.0001 2.40039C13.3256 2.40039 14.4001 3.47491 14.4001 4.80039C14.4001 6.12587 13.3256 7.20039 12.0001 7.20039Z" fill="var(--color-base-main-black)"/>
<path d="M12.0001 14.4004C10.6746 14.4004 9.6001 13.3259 9.6001 12.0004C9.6001 10.6749 10.6746 9.60039 12.0001 9.60039C13.3256 9.60039 14.4001 10.6749 14.4001 12.0004C14.4001 13.3259 13.3256 14.4004 12.0001 14.4004Z" fill="var(--color-base-main-black)"/>
<path d="M12.0001 21.6004C10.6746 21.6004 9.6001 20.5259 9.6001 19.2004C9.6001 17.8749 10.6746 16.8004 12.0001 16.8004C13.3256 16.8004 14.4001 17.8749 14.4001 19.2004C14.4001 20.5259 13.3256 21.6004 12.0001 21.6004Z" fill="var(--color-base-main-black)"/>
</svg>
