<svg width="24" height="24" viewBox="0 0 24 24" fill="none" xmlns="http://www.w3.org/2000/svg">
<path d="M12 2.25C14.3869 2.25 16.6764 3.19791 18.3643 4.88574C20.0521 6.57357 21 8.86305 21 11.25V20.25C21 20.392 20.9597 20.5313 20.8838 20.6514C20.8079 20.7712 20.6995 20.867 20.5713 20.9277C20.4431 20.9885 20.3 21.0113 20.1592 20.9941C20.0182 20.9768 19.8843 20.9201 19.7744 20.8301L17.5 18.9697L15.2246 20.8301C15.0906 20.9396 14.923 21 14.75 21C14.577 21 14.4093 20.9396 14.2754 20.8301L12 18.9697L9.72461 20.8301C9.59067 20.9396 9.42304 21 9.25 21C9.07696 21 8.90935 20.9396 8.77539 20.8301L6.5 18.9697L4.22559 20.8301C4.11572 20.9201 3.9818 20.9768 3.84082 20.9941C3.69998 21.0113 3.55695 20.9885 3.42871 20.9277C3.30053 20.867 3.19209 20.7712 3.11621 20.6514C3.04027 20.5313 2.99997 20.392 3 20.25V11.25C3 8.86305 3.94791 6.57357 5.63574 4.88574C7.32357 3.19791 9.61305 2.25 12 2.25ZM8.5 8C7.67157 8 7 8.67157 7 9.5C7 10.3284 7.67157 11 8.5 11C9.32843 11 10 10.3284 10 9.5C10 8.67157 9.32843 8 8.5 8ZM15.5 8C14.6716 8 14 8.67157 14 9.5C14 10.3284 14.6716 11 15.5 11C16.3284 11 17 10.3284 17 9.5C17 8.67157 16.3284 8 15.5 8Z" fill="var(--color-base-main-black)"/>
</svg>
