<svg width="24" height="24" viewBox="0 0 24 24" fill="none" xmlns="http://www.w3.org/2000/svg">
<path fill-rule="evenodd" clip-rule="evenodd" d="M8.95613 4.95979C9.44622 4.86806 9.93757 5.11228 10.1514 5.55451C10.257 5.71374 10.2845 5.90878 10.297 6.09944C10.4273 8.09738 10.5648 10.065 10.6944 12.0321C10.6914 12.2462 10.726 12.4597 10.795 12.6629C10.9576 13.0627 11.3618 13.3167 11.7999 13.2938L18.4298 12.8846H18.5011C18.7869 12.8893 19.0592 13.0053 19.2579 13.2069C19.4566 13.4085 19.5655 13.6794 19.5606 13.9598C19.2983 17.7819 16.4961 20.975 12.6827 21.7977C8.86932 22.6204 4.96035 20.875 3.08797 17.5135C2.53751 16.5455 2.18941 15.4794 2.06453 14.3778C2.01612 14.0514 1.99484 13.7212 2.00105 13.3914C2.01367 9.32724 4.90739 5.81939 8.95613 4.95979ZM12.9132 2.0008C17.484 2.13763 21.3048 5.45562 21.9971 9.89045C22.0015 9.91691 22.0015 9.94407 21.9971 9.97053C22.012 10.1803 21.9409 10.3874 21.7999 10.5457C21.6588 10.7041 21.4591 10.8006 21.2452 10.8143L13.5655 11.3211C13.3116 11.3436 13.06 11.2597 12.8721 11.0906C12.6843 10.9215 12.5772 10.6826 12.5782 10.4324L12.0626 2.88948V2.76448C12.072 2.55255 12.1668 2.35305 12.3262 2.20979C12.4858 2.06655 12.6971 1.99129 12.9132 2.0008Z" fill="var(--color-base-main)"/>
</svg>
