<svg width="24" height="24" viewBox="0 0 24 24" fill="none" xmlns="http://www.w3.org/2000/svg">
<path fill-rule="evenodd" clip-rule="evenodd" d="M19.1699 3.71413C19.4626 3.42862 19.9221 3.42862 20.205 3.71413C20.4976 3.99959 20.4975 4.47258 20.205 4.75808L18.4287 6.55007C19.8434 7.84955 21.0437 9.6016 21.9413 11.7083C22.0194 11.8953 22.0194 12.1121 21.9413 12.2893C19.8533 17.192 16.136 20.1261 11.999 20.1262H11.9892C10.106 20.1262 8.30036 19.5055 6.7099 18.3733L4.81732 20.2835C4.67096 20.4311 4.48514 20.5003 4.29975 20.5003C4.11445 20.5002 3.91967 20.4311 3.78314 20.2835C3.53927 20.0374 3.50027 19.6442 3.69525 19.3587L3.72455 19.3186L18.1552 4.75808C18.1747 4.73839 18.1943 4.7182 18.204 4.69851C18.2235 4.67889 18.2431 4.65953 18.2529 4.63991L19.1699 3.71413ZM12.0009 3.88601C13.3962 3.88601 14.7529 4.22076 16.0019 4.85085L12.7431 8.13894C12.5089 8.09955 12.2546 8.0696 12.0009 8.0696C9.84469 8.06978 8.09857 9.83243 8.09857 12.0081C8.0986 12.264 8.12792 12.5199 8.16693 12.7561L4.55658 16.3987C3.58084 15.2567 2.73179 13.8783 2.05854 12.2932C1.98049 12.116 1.98048 11.8992 2.05854 11.7122C4.14658 6.80961 7.86399 3.88617 11.9912 3.88601H12.0009ZM14.1552 10.8616C14.3308 11.1963 14.4287 11.5907 14.4287 12.0042C14.4285 13.3527 13.3355 14.4552 11.999 14.4553C11.5893 14.4553 11.1988 14.357 10.8671 14.18L9.80365 15.2532C10.428 15.6763 11.1893 15.9319 11.999 15.9319C14.1454 15.9317 15.8914 14.1699 15.8915 12.0042C15.8915 11.187 15.6383 10.4184 15.2187 9.78835L14.1552 10.8616Z" fill="var(--color-base-main)"/>
</svg>
