<svg width="24" height="24" viewBox="0 0 24 24" fill="none" xmlns="http://www.w3.org/2000/svg">
<path d="M2.01603 17.8288C1.72349 17.5012 1.96417 16.9815 2.40257 16.9942L2.84207 17.0069C2.96994 17.0106 3.09436 16.9649 3.18966 16.8793L15.9252 5.44154C16.0267 5.35036 16.0867 5.22153 16.0912 5.08494L16.1845 2.24638C16.1993 1.79515 16.7552 1.59236 17.0555 1.92863L20.4177 5.69347C20.7095 6.02028 20.4707 6.53884 20.0333 6.52811L17.316 6.46141C17.1889 6.45829 17.0653 6.50393 16.9706 6.58902L4.19405 18.0637C4.11672 18.1331 4.06288 18.225 4.04004 18.3265L3.93532 18.792C3.846 19.1889 3.34691 19.319 3.07626 19.016L2.01603 17.8288Z" fill="var(--color-base-main)" stroke="var(--color-base-main)"/>
<path d="M17.7815 12.8856C18.1494 13.2975 18.1145 13.9306 17.7036 14.2997L11.3411 20.0138C10.9302 20.3828 10.2989 20.3481 9.93104 19.9361L7.06892 16.7312C6.70105 16.3193 6.73593 15.6862 7.14683 15.3172L13.5093 9.60302C13.9202 9.23399 14.5515 9.26877 14.9194 9.6807L17.7815 12.8856ZM8.8015 14.6659C8.3906 15.0349 8.35572 15.668 8.72359 16.08L10.1312 17.6562C10.4991 18.0681 11.1304 18.1029 11.5413 17.7339L15.5011 14.1776C15.912 13.8086 15.9468 13.1755 15.579 12.7636L14.1713 11.1873C13.8035 10.7754 13.1721 10.7406 12.7612 11.1097L8.8015 14.6659Z" fill="var(--color-base-main)"/>
<path d="M12.7612 11.1097L13.0943 11.4826L12.7612 11.1097ZM8.8015 14.6659L8.46845 14.293L8.8015 14.6659ZM14.9194 9.6807L15.2914 9.34661L14.9194 9.6807ZM17.7815 12.8856L17.4095 13.2197L17.7815 12.8856ZM17.7036 14.2997L17.3706 13.9267L11.0081 19.6409L11.3411 20.0138L11.6742 20.3867L18.0366 14.6726L17.7036 14.2997ZM9.93104 19.9361L10.303 19.602L7.44092 16.3971L7.06892 16.7312L6.69693 17.0653L9.55904 20.2702L9.93104 19.9361ZM7.14683 15.3172L7.47987 15.6901L13.8423 9.97595L13.5093 9.60302L13.1763 9.23008L6.81378 14.9442L7.14683 15.3172ZM14.9194 9.6807L14.5474 10.0148L17.4095 13.2197L17.7815 12.8856L18.1535 12.5515L15.2914 9.34661L14.9194 9.6807ZM8.72359 16.08L8.35159 16.4141L9.75924 17.9903L10.1312 17.6562L10.5032 17.3221L9.09559 15.7459L8.72359 16.08ZM11.5413 17.7339L11.8744 18.1068L15.8341 14.5506L15.5011 14.1776L15.168 13.8047L11.2083 17.3609L11.5413 17.7339ZM15.579 12.7636L15.951 12.4295L14.5433 10.8532L14.1713 11.1873L13.7993 11.5214L15.207 13.0977L15.579 12.7636ZM12.7612 11.1097L12.4282 10.7367L8.46845 14.293L8.8015 14.6659L9.13454 15.0388L13.0943 11.4826L12.7612 11.1097ZM14.1713 11.1873L14.5433 10.8532C13.9915 10.2354 13.0445 10.1832 12.4282 10.7367L12.7612 11.1097L13.0943 11.4826C13.2997 11.2981 13.6154 11.3155 13.7993 11.5214L14.1713 11.1873ZM15.5011 14.1776L15.8341 14.5506C16.4505 13.997 16.5028 13.0474 15.951 12.4295L15.579 12.7636L15.207 13.0977C15.3909 13.3036 15.3735 13.6202 15.168 13.8047L15.5011 14.1776ZM10.1312 17.6562L9.75924 17.9903C10.311 18.6082 11.258 18.6604 11.8744 18.1068L11.5413 17.7339L11.2083 17.3609C11.0028 17.5455 10.6872 17.5281 10.5032 17.3221L10.1312 17.6562ZM8.72359 16.08L9.09559 15.7459C8.91165 15.5399 8.92909 15.2234 9.13454 15.0388L8.8015 14.6659L8.46845 14.293C7.8521 14.8465 7.79979 15.7962 8.35159 16.4141L8.72359 16.08ZM13.5093 9.60302L13.8423 9.97595C14.0478 9.79144 14.3635 9.80883 14.5474 10.0148L14.9194 9.6807L15.2914 9.34661C14.7396 8.72871 13.7926 8.67654 13.1763 9.23008L13.5093 9.60302ZM7.06892 16.7312L7.44092 16.3971C7.25699 16.1912 7.27443 15.8746 7.47987 15.6901L7.14683 15.3172L6.81378 14.9442C6.19744 15.4978 6.14512 16.4474 6.69693 17.0653L7.06892 16.7312ZM11.3411 20.0138L11.0081 19.6409C10.8026 19.8254 10.487 19.808 10.303 19.602L9.93104 19.9361L9.55904 20.2702C10.1109 20.8881 11.0578 20.9403 11.6742 20.3867L11.3411 20.0138ZM17.7036 14.2997L18.0366 14.6726C18.653 14.1191 18.7053 13.1694 18.1535 12.5515L17.7815 12.8856L17.4095 13.2197C17.5934 13.4257 17.576 13.7422 17.3706 13.9267L17.7036 14.2997Z" fill="var(--color-base-main)"/>
</svg>
