<svg width="24" height="24" viewBox="0 0 24 24" fill="none" xmlns="http://www.w3.org/2000/svg">
<path d="M20.9995 5.75C21.2648 5.75 21.5199 5.85535 21.7075 6.04297C21.895 6.23048 22.0004 6.48486 22.0005 6.75C22.0005 7.01533 21.8951 7.27039 21.7075 7.45801L9.70752 19.458C9.61476 19.5508 9.50451 19.6245 9.3833 19.6748C9.2619 19.7251 9.13093 19.751 8.99951 19.751C8.86824 19.7509 8.73797 19.7251 8.6167 19.6748C8.52579 19.6371 8.44152 19.5857 8.36572 19.5234L8.29248 19.458L3.04248 14.208C2.85487 14.0204 2.74951 13.7653 2.74951 13.5C2.74962 13.2348 2.85496 12.9805 3.04248 12.793C3.23 12.6055 3.48433 12.5001 3.74951 12.5C4.01484 12.5 4.26991 12.6054 4.45752 12.793L8.99951 17.3359L20.2925 6.04297C20.48 5.85545 20.7343 5.75011 20.9995 5.75Z" stroke-width="0.5"/>
</svg>
