<svg width="24" height="24" viewBox="0 0 24 24" fill="none" xmlns="http://www.w3.org/2000/svg">
<path d="M23.0002 10.9187V13.0819C23.0002 13.6595 22.5078 14.132 21.881 14.153H19.6874C18.4787 14.153 17.3707 13.3234 17.27 12.1893C17.2028 11.5278 17.4714 10.9082 17.9415 10.4777C18.3556 10.0787 18.9264 9.84766 19.5531 9.84766H21.881C22.5078 9.86866 23.0002 10.3412 23.0002 10.9187Z" />
<path d="M21.258 15.896H19.6896C17.6056 15.896 15.8507 14.3267 15.6753 12.3294C15.5765 11.188 15.9933 10.0467 16.8269 9.23457C17.5289 8.51026 18.505 8.10421 19.5579 8.10421H21.258C21.5761 8.10421 21.8393 7.84082 21.8064 7.52256C21.5651 4.85578 19.7992 3.03403 17.1779 2.72675C16.9146 2.68285 16.6404 2.67188 16.3553 2.67188H6.48403C6.17692 2.67188 5.88078 2.69382 5.59561 2.73772C2.79876 3.0889 1 5.17404 1 8.15908V15.8412C1 18.8701 3.45684 21.3284 6.48403 21.3284H16.3553C19.4263 21.3284 21.5432 19.4078 21.8064 16.4777C21.8393 16.1594 21.5761 15.896 21.258 15.896ZM13.0649 9.53088H6.48403C6.03434 9.53088 5.66142 9.15775 5.66142 8.7078C5.66142 8.25785 6.03434 7.88472 6.48403 7.88472H13.0649C13.5145 7.88472 13.8875 8.25785 13.8875 8.7078C13.8875 9.15775 13.5145 9.53088 13.0649 9.53088Z" />
</svg>
