<svg width="48" height="48" viewBox="0 0 48 48" fill="none" xmlns="http://www.w3.org/2000/svg">
<path d="M23.2663 9.00688C24.0361 7.67343 25.9604 7.67354 26.7302 9.00688L43.9968 38.917C44.7662 40.2503 43.8037 41.9169 42.2644 41.917H7.73312C6.19377 41.9169 5.2312 40.2503 6.0007 38.917L23.2663 9.00688ZM24.9987 33.752C24.4455 33.752 23.9721 33.9614 23.5788 34.3799C23.1856 34.7914 22.9921 35.2884 22.9987 35.8702C22.9921 36.4591 23.1855 36.9632 23.5788 37.3819C23.9721 37.7934 24.4455 37.999 24.9987 37.9991C25.3587 37.9991 25.689 37.9035 25.989 37.712C26.289 37.5204 26.5287 37.2646 26.7087 36.9454C26.8954 36.619 26.9921 36.2604 26.9987 35.8702C26.992 35.2884 26.7924 34.7914 26.3991 34.3799C26.0058 33.9613 25.5387 33.752 24.9987 33.752ZM23.3493 20L23.6091 31.5274H26.3786L26.6384 20H23.3493Z" fill="var(--color-base-warning-elems)"/>
</svg>
