<svg width="24" height="24" viewBox="0 0 24 24" fill="none" xmlns="http://www.w3.org/2000/svg">
<path d="M21.7501 6H19.0604L21.5307 3.53062C21.6004 3.46094 21.6557 3.37822 21.6934 3.28717C21.7311 3.19613 21.7505 3.09855 21.7505 3C21.7505 2.90145 21.7311 2.80387 21.6934 2.71283C21.6557 2.62178 21.6004 2.53906 21.5307 2.46938C21.4611 2.39969 21.3783 2.34442 21.2873 2.3067C21.1962 2.26899 21.0987 2.24958 21.0001 2.24958C20.9016 2.24958 20.804 2.26899 20.7129 2.3067C20.6219 2.34442 20.5392 2.39969 20.4695 2.46938L18.0001 4.93969V2.25C18.0001 2.05109 17.9211 1.86032 17.7804 1.71967C17.6398 1.57902 17.449 1.5 17.2501 1.5C17.0512 1.5 16.8604 1.57902 16.7198 1.71967C16.5791 1.86032 16.5001 2.05109 16.5001 2.25V5.30344C15.3573 4.6437 14.0289 4.37911 12.7205 4.55062C11.4121 4.72214 10.1968 5.32019 9.26261 6.25219C5.50324 9.945 2.67668 18.7284 2.40105 19.6069C2.2711 19.8858 2.23009 20.198 2.28358 20.501C2.33707 20.8041 2.48248 21.0834 2.70008 21.301C2.91769 21.5186 3.19695 21.664 3.5 21.7175C3.80305 21.771 4.11522 21.73 4.39418 21.6C5.27261 21.3244 14.0673 18.4941 17.7507 14.7366C18.6821 13.8021 19.2795 12.5868 19.4505 11.2786C19.6215 9.97047 19.3565 8.64242 18.6967 7.5H21.7501C21.949 7.5 22.1398 7.42098 22.2804 7.28033C22.4211 7.13968 22.5001 6.94891 22.5001 6.75C22.5001 6.55109 22.4211 6.36032 22.2804 6.21967C22.1398 6.07902 21.949 6 21.7501 6ZM16.6764 13.6875C15.8382 14.5425 14.6842 15.3562 13.4092 16.0997L11.0298 13.7194C10.9601 13.6497 10.8774 13.5944 10.7863 13.5567C10.6953 13.519 10.5977 13.4996 10.4992 13.4996C10.4006 13.4996 10.303 13.519 10.212 13.5567C10.121 13.5944 10.0382 13.6497 9.96855 13.7194C9.89887 13.7891 9.84359 13.8718 9.80588 13.9628C9.76817 14.0539 9.74876 14.1515 9.74876 14.25C9.74876 14.3485 9.76817 14.4461 9.80588 14.5372C9.84359 14.6282 9.89887 14.7109 9.96855 14.7806L12.0395 16.8516C8.20793 18.8381 3.94699 20.1722 3.88324 20.1919C3.83707 20.2069 3.79248 20.2263 3.75011 20.25C3.77276 20.2078 3.79129 20.1636 3.80543 20.1178C3.83261 20.0306 6.43043 11.7197 9.80543 7.8675L12.9714 11.0334C13.1121 11.1742 13.303 11.2532 13.502 11.2532C13.701 11.2532 13.8919 11.1742 14.0326 11.0334C14.1733 10.8927 14.2524 10.7018 14.2524 10.5028C14.2524 10.3038 14.1733 10.1129 14.0326 9.97219L10.892 6.8325C11.8121 6.17782 12.9448 5.89303 14.0652 6.03466C15.1855 6.1763 16.2117 6.734 16.94 7.59708C17.6683 8.46015 18.0454 9.5655 17.9966 10.6937C17.9477 11.822 17.4765 12.8906 16.6764 13.6875Z"/>
</svg>
