<svg width="24" height="24" viewBox="0 0 24 24" fill="none" xmlns="http://www.w3.org/2000/svg">
<path d="M17.2499 8.2496C17.1768 8.2496 17.1036 8.2496 17.0315 8.2496C17.2648 7.46606 17.312 6.63884 17.1692 5.83386C17.0263 5.02887 16.6975 4.26836 16.2088 3.61293C15.7202 2.95749 15.0852 2.42524 14.3544 2.05858C13.6237 1.69191 12.8174 1.50098 11.9999 1.50098C11.1823 1.50098 10.3761 1.69191 9.64535 2.05858C8.91462 2.42524 8.27963 2.95749 7.79095 3.61293C7.30228 4.26836 6.97343 5.02887 6.83062 5.83386C6.6878 6.63884 6.73495 7.46606 6.96833 8.2496C6.8952 8.2496 6.82302 8.2496 6.74989 8.2496C5.96034 8.24999 5.18105 8.42845 4.47002 8.7717C3.75899 9.11496 3.13453 9.61416 2.64314 10.2322C2.15175 10.8502 1.80608 11.571 1.63185 12.3411C1.45763 13.1112 1.45934 13.9107 1.63686 14.68C1.81439 15.4493 2.16314 16.1687 2.65718 16.7846C3.15121 17.4005 3.7778 17.897 4.49029 18.2372C5.20279 18.5774 5.98284 18.7526 6.77238 18.7496C7.56193 18.7466 8.34063 18.5655 9.05052 18.2199L8.28176 20.784C8.24815 20.896 8.24118 21.0142 8.26142 21.1294C8.28165 21.2445 8.32852 21.3534 8.39828 21.4472C8.46805 21.541 8.55878 21.6172 8.66324 21.6697C8.76769 21.7222 8.88298 21.7496 8.99989 21.7496H14.9999C15.1168 21.7496 15.2321 21.7222 15.3365 21.6697C15.441 21.6172 15.5317 21.541 15.6015 21.4472C15.6713 21.3534 15.7181 21.2445 15.7384 21.1294C15.7586 21.0142 15.7516 20.896 15.718 20.784L14.9493 18.2199C15.6592 18.5655 16.4379 18.7466 17.2274 18.7496C18.0169 18.7526 18.797 18.5774 19.5095 18.2372C20.222 17.897 20.8486 17.4005 21.3426 16.7846C21.8366 16.1687 22.1854 15.4493 22.3629 14.68C22.5404 13.9107 22.5422 13.1112 22.3679 12.3411C22.1937 11.571 21.848 10.8502 21.3566 10.2322C20.8652 9.61416 20.2408 9.11496 19.5298 8.7717C18.8187 8.42845 18.0394 8.24999 17.2499 8.2496ZM17.2499 17.2496C16.6291 17.2495 16.018 17.0953 15.4715 16.8007C14.9249 16.5062 14.4601 16.0806 14.1186 15.5621C14.0192 15.4125 13.8693 15.3036 13.6963 15.2551C13.5234 15.2067 13.3387 15.2219 13.176 15.2981C13.0133 15.3743 12.8834 15.5063 12.8098 15.6702C12.7363 15.8341 12.724 16.019 12.7752 16.1912L13.994 20.2468H10.0096L11.2283 16.1912C11.2828 16.0178 11.2724 15.8305 11.1991 15.6642C11.1259 15.4979 10.9947 15.3638 10.8301 15.287C10.6654 15.2101 10.4784 15.1956 10.3039 15.2462C10.1294 15.2968 9.97913 15.4091 9.88114 15.5621C9.49363 16.149 8.94889 16.6151 8.3091 16.9072C7.66932 17.1993 6.9603 17.3056 6.26299 17.2139C5.56569 17.1223 4.90821 16.8364 4.36565 16.3889C3.82308 15.9414 3.41729 15.3503 3.19462 14.6832C2.97195 14.0161 2.94137 13.2998 3.10637 12.6161C3.27138 11.9324 3.62532 11.3089 4.12777 10.8168C4.63022 10.3247 5.26094 9.98383 5.9479 9.83308C6.63485 9.68232 7.35036 9.72779 8.0127 9.96429C8.16144 10.0175 8.32317 10.0223 8.47483 9.97818C8.62649 9.93403 8.76034 9.84312 8.85729 9.71842C8.95425 9.59372 9.00935 9.4416 9.01476 9.28373C9.02016 9.12587 8.97559 8.97033 8.88739 8.83929C8.50815 8.27496 8.28949 7.61813 8.25478 6.9391C8.22007 6.26006 8.37063 5.58437 8.69035 4.98431C9.01008 4.38425 9.48693 3.8824 10.0699 3.53247C10.6528 3.18253 11.32 2.99768 11.9999 2.99768C12.6798 2.99768 13.3469 3.18253 13.9299 3.53247C14.5129 3.8824 14.9897 4.38425 15.3094 4.98431C15.6291 5.58437 15.7797 6.26006 15.745 6.9391C15.7103 7.61813 15.4916 8.27496 15.1124 8.83929C15.0242 8.97033 14.9796 9.12587 14.985 9.28373C14.9904 9.4416 15.0455 9.59372 15.1425 9.71842C15.2394 9.84312 15.3733 9.93403 15.525 9.97818C15.6766 10.0223 15.8383 10.0175 15.9871 9.96429C16.5015 9.78233 17.0494 9.71481 17.5926 9.76646C18.1358 9.8181 18.6612 9.98766 19.1321 10.2633C19.6029 10.5389 20.008 10.914 20.319 11.3624C20.63 11.8107 20.8394 12.3215 20.9326 12.8592C21.0257 13.3968 21.0005 13.9483 20.8585 14.4751C20.7166 15.002 20.4614 15.4915 20.1108 15.9096C19.7601 16.3276 19.3224 16.6641 18.8283 16.8955C18.3342 17.127 17.7955 17.2478 17.2499 17.2496Z"/>
</svg>
