<svg width="24" height="24" viewBox="0 0 24 24" fill="none" xmlns="http://www.w3.org/2000/svg">
<path d="M23.2502 7.50015C23.2506 7.08901 23.1543 6.68354 22.9693 6.3164C22.7843 5.94926 22.5156 5.63072 22.1849 5.38644C21.8542 5.14216 21.4707 4.97898 21.0654 4.91003C20.6601 4.84108 20.2443 4.8683 19.8514 4.9895C19.4585 5.11069 19.0996 5.32247 18.8036 5.60778C18.5076 5.89308 18.2827 6.24393 18.1471 6.63206C18.0115 7.02019 17.9689 7.43474 18.0229 7.84232C18.0769 8.2499 18.2258 8.6391 18.4577 8.97858L15.9461 12.0723L13.6877 6.8814C14.0996 6.53473 14.3949 6.06979 14.5337 5.54961C14.6725 5.02943 14.6479 4.47917 14.4634 3.97341C14.2789 3.46764 13.9433 3.03084 13.5022 2.72221C13.0611 2.41358 12.5358 2.24805 11.9974 2.24805C11.459 2.24805 10.9337 2.41358 10.4925 2.72221C10.0514 3.03084 9.71587 3.46764 9.53136 3.97341C9.34685 4.47917 9.32231 5.02943 9.46107 5.54961C9.59983 6.06979 9.89518 6.53473 10.3071 6.8814L8.05426 12.0695L5.5427 8.97577C5.86533 8.50303 6.02462 7.9378 5.9963 7.36617C5.96798 6.79453 5.75361 6.24781 5.38584 5.80927C5.01807 5.37073 4.51704 5.06441 3.95908 4.93695C3.40111 4.8095 2.81677 4.8679 2.29506 5.10326C1.77336 5.33861 1.34286 5.73803 1.06915 6.24068C0.795441 6.74333 0.69351 7.32166 0.778882 7.8876C0.864255 8.45353 1.13225 8.97606 1.54206 9.3756C1.95187 9.77513 2.48103 10.0298 3.04895 10.1008L4.40645 18.2467C4.46481 18.5969 4.6455 18.9151 4.91638 19.1446C5.18727 19.3741 5.53078 19.5001 5.88582 19.5001H18.1146C18.4696 19.5001 18.8131 19.3741 19.084 19.1446C19.3549 18.9151 19.5356 18.5969 19.5939 18.2467L20.9505 10.1045C21.5854 10.0252 22.1694 9.71682 22.5929 9.23724C23.0164 8.75766 23.2501 8.13993 23.2502 7.50015ZM12.0002 3.75015C12.2227 3.75015 12.4402 3.81613 12.6252 3.93974C12.8102 4.06336 12.9544 4.23906 13.0396 4.44463C13.1247 4.65019 13.147 4.87639 13.1036 5.09462C13.0602 5.31285 12.953 5.51331 12.7957 5.67064C12.6384 5.82798 12.4379 5.93512 12.2197 5.97853C12.0014 6.02194 11.7752 5.99966 11.5697 5.91451C11.3641 5.82936 11.1884 5.68517 11.0648 5.50016C10.9412 5.31516 10.8752 5.09765 10.8752 4.87515C10.8752 4.57678 10.9937 4.29063 11.2047 4.07965C11.4157 3.86867 11.7018 3.75015 12.0002 3.75015ZM2.2502 7.50015C2.2502 7.27764 2.31618 7.06014 2.43979 6.87513C2.56341 6.69013 2.73911 6.54593 2.94468 6.46078C3.15025 6.37563 3.37645 6.35335 3.59467 6.39676C3.8129 6.44017 4.01336 6.54732 4.17069 6.70465C4.32803 6.86199 4.43517 7.06244 4.47858 7.28067C4.52199 7.4989 4.49971 7.7251 4.41456 7.93067C4.32941 8.13623 4.18522 8.31193 4.00021 8.43555C3.81521 8.55917 3.5977 8.62515 3.3752 8.62515C3.07683 8.62515 2.79068 8.50662 2.5797 8.29564C2.36872 8.08466 2.2502 7.79852 2.2502 7.50015ZM18.1146 18.0001H5.88582L4.58082 10.1739L7.66801 13.9689C7.73793 14.0562 7.8265 14.1268 7.92724 14.1755C8.02798 14.2241 8.13832 14.2497 8.2502 14.2501C8.28406 14.2503 8.31789 14.2481 8.35145 14.2436C8.47922 14.2262 8.60035 14.1762 8.70316 14.0984C8.80596 14.0205 8.88695 13.9175 8.93832 13.7992L11.6852 7.48046C11.8944 7.50669 12.106 7.50669 12.3152 7.48046L15.0621 13.7992C15.1134 13.9175 15.1944 14.0205 15.2972 14.0984C15.4 14.1762 15.5212 14.2262 15.6489 14.2436C15.6825 14.2481 15.7163 14.2503 15.7502 14.2501C15.8621 14.2497 15.9724 14.2241 16.0732 14.1755C16.1739 14.1268 16.2625 14.0562 16.3324 13.9689L19.4196 10.1701L18.1146 18.0001ZM20.6252 8.62515C20.4027 8.62515 20.1852 8.55917 20.0002 8.43555C19.8152 8.31193 19.671 8.13623 19.5858 7.93067C19.5007 7.7251 19.4784 7.4989 19.5218 7.28067C19.5652 7.06244 19.6724 6.86199 19.8297 6.70465C19.987 6.54732 20.1875 6.44017 20.4057 6.39676C20.624 6.35335 20.8501 6.37563 21.0557 6.46078C21.2613 6.54593 21.437 6.69013 21.5606 6.87513C21.6842 7.06014 21.7502 7.27764 21.7502 7.50015C21.7502 7.79852 21.6317 8.08466 21.4207 8.29564C21.2097 8.50662 20.9236 8.62515 20.6252 8.62515Z"/>
</svg>
