<svg width="24" height="24" viewBox="0 0 24 24" fill="none" xmlns="http://www.w3.org/2000/svg">
<path d="M21.6468 6.90004C21.3535 6.75626 21.0209 6.71315 20.7006 6.77738C20.3804 6.84161 20.0901 7.00959 19.8749 7.25535L16.7184 10.6575L13.3621 3.13035C13.362 3.12723 13.362 3.1241 13.3621 3.12097C13.2421 2.86067 13.05 2.64021 12.8086 2.48568C12.5672 2.33115 12.2866 2.24902 11.9999 2.24902C11.7133 2.24902 11.4327 2.33115 11.1912 2.48568C10.9498 2.64021 10.7578 2.86067 10.6377 3.12097C10.6379 3.1241 10.6379 3.12723 10.6377 3.13035L7.28149 10.6575L4.12493 7.25535C3.90833 7.00955 3.61722 6.84141 3.29607 6.77664C2.97493 6.71187 2.6414 6.75402 2.34646 6.89665C2.05153 7.03929 1.8114 7.27456 1.66277 7.56652C1.51413 7.85848 1.46517 8.19107 1.52337 8.51347C1.52337 8.52379 1.52337 8.53316 1.52993 8.54347L3.65618 18.2813C3.72163 18.6242 3.90463 18.9335 4.17365 19.156C4.44266 19.3784 4.78084 19.5001 5.12993 19.5H18.8709C19.2198 19.4999 19.5578 19.3781 19.8266 19.1557C20.0954 18.9332 20.2783 18.624 20.3437 18.2813L22.4699 8.54347C22.4699 8.53316 22.4699 8.52379 22.4765 8.51347C22.5358 8.19067 22.4866 7.85731 22.3365 7.56543C22.1864 7.27356 21.9439 7.03958 21.6468 6.90004ZM18.8765 17.97L18.8709 18H5.12899L5.12337 17.97L2.99993 8.25004L3.01305 8.26504L6.95055 12.5063C7.03487 12.5974 7.14048 12.6662 7.25791 12.7064C7.37534 12.7466 7.50093 12.7571 7.6234 12.7368C7.74587 12.7166 7.8614 12.6662 7.95962 12.5903C8.05785 12.5144 8.13569 12.4153 8.18618 12.3019L11.9999 3.75004L15.8146 12.3047C15.8651 12.4181 15.9429 12.5172 16.0412 12.5931C16.1394 12.669 16.2549 12.7194 16.3774 12.7396C16.4999 12.7599 16.6255 12.7494 16.7429 12.7092C16.8603 12.669 16.9659 12.6002 17.0502 12.5091L20.9877 8.26785L20.9999 8.25004L18.8765 17.97Z"/>
</svg>
