<svg width="24" height="24" viewBox="0 0 24 24" fill="none" xmlns="http://www.w3.org/2000/svg">
<path d="M16.875 5.25C15.2119 5.25 13.7616 5.8575 12.75 6.85875V3.75H14.25C14.4489 3.75 14.6397 3.67098 14.7803 3.53033C14.921 3.38968 15 3.19891 15 3C15 2.80109 14.921 2.61032 14.7803 2.46967C14.6397 2.32902 14.4489 2.25 14.25 2.25H12.75V0.75C12.75 0.551088 12.671 0.360322 12.5303 0.21967C12.3897 0.0790176 12.1989 0 12 0C11.8011 0 11.6103 0.0790176 11.4697 0.21967C11.329 0.360322 11.25 0.551088 11.25 0.75V2.25H9.75C9.55109 2.25 9.36032 2.32902 9.21967 2.46967C9.07902 2.61032 9 2.80109 9 3C9 3.19891 9.07902 3.38968 9.21967 3.53033C9.36032 3.67098 9.55109 3.75 9.75 3.75H11.25V6.85875C10.2384 5.8575 8.78812 5.25 7.125 5.25C5.63369 5.25174 4.20396 5.84493 3.14944 6.89944C2.09493 7.95396 1.50174 9.38369 1.5 10.875C1.5 13.6744 2.86312 15.4547 4.00594 16.455C4.60649 16.9784 5.27777 17.4145 6 17.7506V19.5C6 19.8978 6.15804 20.2794 6.43934 20.5607C6.72064 20.842 7.10218 21 7.5 21H16.5C16.8978 21 17.2794 20.842 17.5607 20.5607C17.842 20.2794 18 19.8978 18 19.5V17.7506C18.7222 17.4145 19.3935 16.9784 19.9941 16.455C21.1369 15.4547 22.5 13.6744 22.5 10.875C22.4983 9.38369 21.9051 7.95396 20.8506 6.89944C19.796 5.84493 18.3663 5.25174 16.875 5.25ZM17.0128 16.5384C16.8635 16.5882 16.7336 16.6837 16.6415 16.8114C16.5495 16.9391 16.5 17.0926 16.5 17.25V19.5H7.5V17.25C7.50001 17.0926 7.45049 16.9391 7.35845 16.8114C7.26642 16.6837 7.13653 16.5882 6.98719 16.5384C6.94687 16.5253 3 15.1594 3 10.875C3.00124 9.78136 3.43624 8.73287 4.20955 7.95955C4.98287 7.18624 6.03136 6.75124 7.125 6.75C9.51562 6.75 11.25 8.32687 11.25 10.5V16.5C11.25 16.6989 11.329 16.8897 11.4697 17.0303C11.6103 17.171 11.8011 17.25 12 17.25C12.1989 17.25 12.3897 17.171 12.5303 17.0303C12.671 16.8897 12.75 16.6989 12.75 16.5V10.5C12.75 8.32687 14.4844 6.75 16.875 6.75C17.9686 6.75124 19.0171 7.18624 19.7904 7.95955C20.5638 8.73287 20.9988 9.78136 21 10.875C21 15.1313 17.1731 16.4841 17.0128 16.5384Z"/>
</svg>
