<svg width="24" height="24" viewBox="0 0 24 24" fill="none" xmlns="http://www.w3.org/2000/svg">
<path d="M16.7325 10.8469C17.3017 10.2988 17.7016 9.5987 17.8844 8.82993C18.0673 8.06116 18.0255 7.25604 17.764 6.51034C17.5025 5.76464 17.0323 5.10975 16.4093 4.62356C15.7864 4.13737 15.0369 3.84034 14.25 3.76781V2.25C14.25 2.05109 14.171 1.86032 14.0303 1.71967C13.8897 1.57902 13.6989 1.5 13.5 1.5C13.3011 1.5 13.1103 1.57902 12.9697 1.71967C12.829 1.86032 12.75 2.05109 12.75 2.25V3.75H11.25V2.25C11.25 2.05109 11.171 1.86032 11.0303 1.71967C10.8897 1.57902 10.6989 1.5 10.5 1.5C10.3011 1.5 10.1103 1.57902 9.96967 1.71967C9.82902 1.86032 9.75 2.05109 9.75 2.25V3.75H6.75C6.55109 3.75 6.36032 3.82902 6.21967 3.96967C6.07902 4.11032 6 4.30109 6 4.5C6 4.69891 6.07902 4.88968 6.21967 5.03033C6.36032 5.17098 6.55109 5.25 6.75 5.25H7.5V18H6.75C6.55109 18 6.36032 18.079 6.21967 18.2197C6.07902 18.3603 6 18.5511 6 18.75C6 18.9489 6.07902 19.1397 6.21967 19.2803C6.36032 19.421 6.55109 19.5 6.75 19.5H9.75V21C9.75 21.1989 9.82902 21.3897 9.96967 21.5303C10.1103 21.671 10.3011 21.75 10.5 21.75C10.6989 21.75 10.8897 21.671 11.0303 21.5303C11.171 21.3897 11.25 21.1989 11.25 21V19.5H12.75V21C12.75 21.1989 12.829 21.3897 12.9697 21.5303C13.1103 21.671 13.3011 21.75 13.5 21.75C13.6989 21.75 13.8897 21.671 14.0303 21.5303C14.171 21.3897 14.25 21.1989 14.25 21V19.5H15C16.0401 19.5 17.0481 19.1397 17.8526 18.4803C18.657 17.821 19.2082 16.9033 19.4124 15.8834C19.6166 14.8636 19.4612 13.8044 18.9726 12.8862C18.484 11.968 17.6925 11.2473 16.7325 10.8469ZM16.5 7.875C16.5 8.57119 16.2234 9.23887 15.7312 9.73116C15.2389 10.2234 14.5712 10.5 13.875 10.5H9V5.25H13.875C14.5712 5.25 15.2389 5.52656 15.7312 6.01884C16.2234 6.51113 16.5 7.17881 16.5 7.875ZM15 18H9V12H15C15.7956 12 16.5587 12.3161 17.1213 12.8787C17.6839 13.4413 18 14.2044 18 15C18 15.7956 17.6839 16.5587 17.1213 17.1213C16.5587 17.6839 15.7956 18 15 18Z"/>
</svg>
