<svg width="24" height="24" viewBox="0 0 24 24" fill="none" xmlns="http://www.w3.org/2000/svg">
<path d="M17.8125 18.0307C17.8782 18.1041 17.9288 18.1898 17.9614 18.2827C17.994 18.3757 18.008 18.4742 18.0025 18.5726C17.997 18.671 17.9722 18.7673 17.9294 18.8561C17.8867 18.9449 17.8269 19.0244 17.7534 19.0901C16.722 20.0137 15.4549 20.6338 14.0927 20.8816C12.7305 21.1295 11.3262 20.9954 10.0355 20.4942C8.74484 19.9931 7.61806 19.1444 6.78002 18.0423C5.94198 16.9401 5.4254 15.6274 5.2875 14.2497H3.75C3.55109 14.2497 3.36032 14.1707 3.21967 14.0301C3.07902 13.8894 3 13.6987 3 13.4997C3 13.3008 3.07902 13.1101 3.21967 12.9694C3.36032 12.8288 3.55109 12.7497 3.75 12.7497H5.25V11.2497H3.75C3.55109 11.2497 3.36032 11.1707 3.21967 11.0301C3.07902 10.8894 3 10.6987 3 10.4997C3 10.3008 3.07902 10.1101 3.21967 9.96942C3.36032 9.82876 3.55109 9.74975 3.75 9.74975H5.2875C5.42578 8.37258 5.94245 7.06053 6.78032 5.95886C7.61819 4.85718 8.74457 4.00885 10.0348 3.50777C11.325 3.00669 12.7287 2.87241 14.0905 3.1198C15.4523 3.36718 16.7191 3.98659 17.7506 4.90943C17.8989 5.04221 17.9884 5.22846 17.9994 5.42722C18.0104 5.62598 17.942 5.82096 17.8092 5.96928C17.6764 6.11759 17.4902 6.20709 17.2914 6.21808C17.0927 6.22906 16.8977 6.16065 16.7494 6.02787C15.9337 5.29896 14.9342 4.80692 13.8591 4.60497C12.7839 4.40302 11.6741 4.49885 10.6494 4.88208C9.62484 5.26532 8.7245 5.92139 8.0458 6.77933C7.3671 7.63727 6.93587 8.66444 6.79875 9.74975H12.75C12.9489 9.74975 13.1397 9.82876 13.2803 9.96942C13.421 10.1101 13.5 10.3008 13.5 10.4997C13.5 10.6987 13.421 10.8894 13.2803 11.0301C13.1397 11.1707 12.9489 11.2497 12.75 11.2497H6.75V12.7497H11.25C11.4489 12.7497 11.6397 12.8288 11.7803 12.9694C11.921 13.1101 12 13.3008 12 13.4997C12 13.6987 11.921 13.8894 11.7803 14.0301C11.6397 14.1707 11.4489 14.2497 11.25 14.2497H6.79875C6.93573 15.3351 7.36685 16.3624 8.04549 17.2205C8.72413 18.0785 9.62445 18.7347 10.6491 19.1181C11.6737 19.5014 12.7837 19.5973 13.8589 19.3954C14.9341 19.1935 15.9336 18.7015 16.7494 17.9726C16.8228 17.9062 16.9087 17.8551 17.002 17.8221C17.0953 17.7891 17.1942 17.7748 17.293 17.7803C17.3919 17.7857 17.4886 17.8106 17.5778 17.8535C17.667 17.8965 17.7467 17.9567 17.8125 18.0307Z"/>
</svg>
