<svg width="24" height="24" viewBox="0 0 24 24" fill="none" xmlns="http://www.w3.org/2000/svg">
<path d="M18.75 15.75C18.7488 16.9431 18.2743 18.087 17.4306 18.9306C16.587 19.7743 15.4431 20.2488 14.25 20.25H12.75V21.75C12.75 21.9489 12.671 22.1397 12.5303 22.2803C12.3897 22.421 12.1989 22.5 12 22.5C11.8011 22.5 11.6103 22.421 11.4697 22.2803C11.329 22.1397 11.25 21.9489 11.25 21.75V20.25H9.75C8.55691 20.2488 7.41303 19.7743 6.56939 18.9306C5.72575 18.087 5.25124 16.9431 5.25 15.75C5.25 15.5511 5.32902 15.3603 5.46967 15.2197C5.61032 15.079 5.80109 15 6 15C6.19891 15 6.38968 15.079 6.53033 15.2197C6.67098 15.3603 6.75 15.5511 6.75 15.75C6.75 16.5456 7.06607 17.3087 7.62868 17.8713C8.19129 18.4339 8.95435 18.75 9.75 18.75H14.25C15.0456 18.75 15.8087 18.4339 16.3713 17.8713C16.9339 17.3087 17.25 16.5456 17.25 15.75C17.25 14.9544 16.9339 14.1913 16.3713 13.6287C15.8087 13.0661 15.0456 12.75 14.25 12.75H10.5C9.30653 12.75 8.16193 12.2759 7.31802 11.432C6.47411 10.5881 6 9.44347 6 8.25C6 7.05653 6.47411 5.91193 7.31802 5.06802C8.16193 4.22411 9.30653 3.75 10.5 3.75H11.25V2.25C11.25 2.05109 11.329 1.86032 11.4697 1.71967C11.6103 1.57902 11.8011 1.5 12 1.5C12.1989 1.5 12.3897 1.57902 12.5303 1.71967C12.671 1.86032 12.75 2.05109 12.75 2.25V3.75H13.5C14.6931 3.75124 15.837 4.22575 16.6806 5.06939C17.5243 5.91303 17.9988 7.05691 18 8.25C18 8.44891 17.921 8.63968 17.7803 8.78033C17.6397 8.92098 17.4489 9 17.25 9C17.0511 9 16.8603 8.92098 16.7197 8.78033C16.579 8.63968 16.5 8.44891 16.5 8.25C16.5 7.45435 16.1839 6.69129 15.6213 6.12868C15.0587 5.56607 14.2956 5.25 13.5 5.25H10.5C9.70435 5.25 8.94129 5.56607 8.37868 6.12868C7.81607 6.69129 7.5 7.45435 7.5 8.25C7.5 9.04565 7.81607 9.80871 8.37868 10.3713C8.94129 10.9339 9.70435 11.25 10.5 11.25H14.25C15.4431 11.2512 16.587 11.7257 17.4306 12.5694C18.2743 13.413 18.7488 14.5569 18.75 15.75Z"/>
</svg>
