<svg width="24" height="24" viewBox="0 0 24 24" fill="none" xmlns="http://www.w3.org/2000/svg">
<path d="M21.7501 20.2504H17.1901C19.177 18.9986 20.645 17.0715 21.3242 14.8235C22.0033 12.5756 21.8479 10.158 20.8866 8.0155C19.9252 5.873 18.2226 4.14968 16.0918 3.16257C13.961 2.17545 11.5455 1.99093 9.28951 2.64295C7.03354 3.29496 5.08887 4.73966 3.81324 6.71128C2.5376 8.68291 2.0168 11.0488 2.34663 13.3739C2.67646 15.6989 3.83475 17.8266 5.60841 19.3657C7.38208 20.9047 9.65183 21.7516 12.0001 21.7504H21.7501C21.949 21.7504 22.1398 21.6714 22.2805 21.5307C22.4211 21.3901 22.5001 21.1993 22.5001 21.0004C22.5001 20.8015 22.4211 20.6107 22.2805 20.4701C22.1398 20.3294 21.949 20.2504 21.7501 20.2504ZM3.75014 12.0004C3.75014 10.3687 4.23399 8.77365 5.14051 7.41694C6.04703 6.06024 7.33551 5.00281 8.843 4.37839C10.3505 3.75397 12.0093 3.59059 13.6096 3.90892C15.21 4.22725 16.68 5.01298 17.8338 6.16677C18.9876 7.32055 19.7733 8.79056 20.0916 10.3909C20.4099 11.9912 20.2466 13.65 19.6221 15.1575C18.9977 16.665 17.9403 17.9535 16.5836 18.86C15.2269 19.7665 13.6318 20.2504 12.0001 20.2504C9.81286 20.2479 7.71588 19.3779 6.16925 17.8313C4.62261 16.2846 3.75262 14.1877 3.75014 12.0004ZM12.0001 9.7504C12.4451 9.7504 12.8802 9.61844 13.2502 9.3712C13.6202 9.12397 13.9086 8.77257 14.0789 8.36143C14.2492 7.9503 14.2937 7.4979 14.2069 7.06144C14.1201 6.62499 13.9058 6.22407 13.5911 5.90941C13.2765 5.59474 12.8755 5.38045 12.4391 5.29363C12.0026 5.20681 11.5502 5.25137 11.1391 5.42167C10.728 5.59196 10.3766 5.88035 10.1293 6.25036C9.8821 6.62037 9.75014 7.05539 9.75014 7.5004C9.75014 8.09713 9.98719 8.66943 10.4091 9.09139C10.8311 9.51334 11.4034 9.7504 12.0001 9.7504ZM12.0001 6.7504C12.1485 6.7504 12.2935 6.79438 12.4168 6.87679C12.5402 6.95921 12.6363 7.07634 12.693 7.21338C12.7498 7.35043 12.7647 7.50123 12.7357 7.64671C12.7068 7.7922 12.6354 7.92584 12.5305 8.03073C12.4256 8.13562 12.2919 8.20705 12.1465 8.23599C12.001 8.26492 11.8502 8.25007 11.7131 8.19331C11.5761 8.13654 11.4589 8.04041 11.3765 7.91707C11.2941 7.79374 11.2501 7.64873 11.2501 7.5004C11.2501 7.30148 11.3292 7.11072 11.4698 6.97007C11.6105 6.82941 11.8012 6.7504 12.0001 6.7504ZM14.2501 16.5004C14.2501 16.0554 14.1182 15.6204 13.8709 15.2504C13.6237 14.8804 13.2723 14.592 12.8612 14.4217C12.45 14.2514 11.9976 14.2068 11.5612 14.2936C11.1247 14.3804 10.7238 14.5947 10.4091 14.9094C10.0945 15.2241 9.88019 15.625 9.79337 16.0614C9.70655 16.4979 9.75111 16.9503 9.92141 17.3614C10.0917 17.7726 10.3801 18.124 10.7501 18.3712C11.1201 18.6184 11.5551 18.7504 12.0001 18.7504C12.5969 18.7504 13.1692 18.5133 13.5911 18.0914C14.0131 17.6694 14.2501 17.0971 14.2501 16.5004ZM11.2501 16.5004C11.2501 16.3521 11.2941 16.2071 11.3765 16.0837C11.4589 15.9604 11.5761 15.8643 11.7131 15.8075C11.8502 15.7507 12.001 15.7359 12.1465 15.7648C12.2919 15.7937 12.4256 15.8652 12.5305 15.9701C12.6354 16.075 12.7068 16.2086 12.7357 16.3541C12.7647 16.4996 12.7498 16.6504 12.693 16.7874C12.6363 16.9245 12.5402 17.0416 12.4168 17.124C12.2935 17.2064 12.1485 17.2504 12.0001 17.2504C11.8012 17.2504 11.6105 17.1714 11.4698 17.0307C11.3292 16.8901 11.2501 16.6993 11.2501 16.5004ZM16.5001 14.2504C16.9451 14.2504 17.3802 14.1184 17.7502 13.8712C18.1202 13.624 18.4086 13.2726 18.5789 12.8614C18.7492 12.4503 18.7937 11.9979 18.7069 11.5614C18.6201 11.125 18.4058 10.7241 18.0911 10.4094C17.7765 10.0947 17.3755 9.88045 16.9391 9.79363C16.5026 9.70681 16.0502 9.75137 15.6391 9.92167C15.228 10.092 14.8766 10.3804 14.6293 10.7504C14.3821 11.1204 14.2501 11.5554 14.2501 12.0004C14.2501 12.5971 14.4872 13.1694 14.9091 13.5914C15.3311 14.0133 15.9034 14.2504 16.5001 14.2504ZM16.5001 11.2504C16.6485 11.2504 16.7935 11.2944 16.9168 11.3768C17.0402 11.4592 17.1363 11.5763 17.193 11.7134C17.2498 11.8504 17.2647 12.0012 17.2357 12.1467C17.2068 12.2922 17.1354 12.4258 17.0305 12.5307C16.9256 12.6356 16.7919 12.707 16.6465 12.736C16.501 12.7649 16.3502 12.7501 16.2131 12.6933C16.0761 12.6365 15.9589 12.5404 15.8765 12.4171C15.7941 12.2937 15.7501 12.1487 15.7501 12.0004C15.7501 11.8015 15.8292 11.6107 15.9698 11.4701C16.1105 11.3294 16.3012 11.2504 16.5001 11.2504ZM7.50014 9.7504C7.05513 9.7504 6.62011 9.88236 6.2501 10.1296C5.88009 10.3768 5.5917 10.7282 5.42141 11.1394C5.25111 11.5505 5.20655 12.0029 5.29337 12.4393C5.38019 12.8758 5.59448 13.2767 5.90915 13.5914C6.22381 13.9061 6.62473 14.1203 7.06118 14.2072C7.49764 14.294 7.95004 14.2494 8.36117 14.0791C8.77231 13.9088 9.12371 13.6204 9.37094 13.2504C9.61818 12.8804 9.75014 12.4454 9.75014 12.0004C9.75014 11.4037 9.51308 10.8314 9.09113 10.4094C8.66917 9.98745 8.09687 9.7504 7.50014 9.7504ZM7.50014 12.7504C7.3518 12.7504 7.2068 12.7064 7.08346 12.624C6.96012 12.5416 6.86399 12.4245 6.80723 12.2874C6.75046 12.1504 6.73561 11.9996 6.76455 11.8541C6.79349 11.7086 6.86492 11.575 6.96981 11.4701C7.0747 11.3652 7.20833 11.2937 7.35382 11.2648C7.4993 11.2359 7.6501 11.2507 7.78715 11.3075C7.92419 11.3643 8.04133 11.4604 8.12374 11.5837C8.20615 11.7071 8.25014 11.8521 8.25014 12.0004C8.25014 12.1993 8.17112 12.3901 8.03047 12.5307C7.88981 12.6714 7.69905 12.7504 7.50014 12.7504Z"/>
</svg>
