<svg width="24" height="24" viewBox="0 0 24 24" fill="none" xmlns="http://www.w3.org/2000/svg">
<path d="M15.75 9.75005H8.25001C7.25544 9.75005 6.30162 10.1451 5.59836 10.8484C4.89509 11.5517 4.50001 12.5055 4.50001 13.5001V14.2501C4.50001 14.7425 4.597 15.2301 4.78546 15.6851C4.97391 16.1401 5.25014 16.5535 5.59836 16.9017C6.30162 17.605 7.25544 18.0001 8.25001 18.0001H15.75C16.2425 18.0001 16.7301 17.9031 17.1851 17.7146C17.64 17.5261 18.0534 17.2499 18.4017 16.9017C18.7499 16.5535 19.0261 16.1401 19.2146 15.6851C19.403 15.2301 19.5 14.7425 19.5 14.2501V13.5001C19.5 12.5055 19.1049 11.5517 18.4017 10.8484C17.6984 10.1451 16.7446 9.75005 15.75 9.75005ZM18 14.2501C18 14.8468 17.763 15.4191 17.341 15.841C16.919 16.263 16.3467 16.5001 15.75 16.5001H8.25001C7.65327 16.5001 7.08097 16.263 6.65902 15.841C6.23706 15.4191 6.00001 14.8468 6.00001 14.2501V13.5001C6.00001 12.9033 6.23706 12.331 6.65902 11.9091C7.08097 11.4871 7.65327 11.2501 8.25001 11.2501H15.75C16.3467 11.2501 16.919 11.4871 17.341 11.9091C17.763 12.331 18 12.9033 18 13.5001V14.2501ZM19.5 3.75005C18.8349 3.75068 18.1888 3.9719 17.6629 4.37906C17.137 4.78622 16.761 5.35631 16.5938 6.00005H7.40626C7.22489 5.29169 6.79106 4.67395 6.18629 4.26294C5.58153 3.85192 4.84747 3.67593 4.12208 3.76805C3.39669 3.86016 2.72992 4.21403 2.24708 4.76315C1.76423 5.31228 1.49857 6.01884 1.50001 6.75005V14.2501C1.50199 16.0397 2.21379 17.7554 3.47923 19.0208C4.74467 20.2863 6.4604 20.9981 8.25001 21.0001H15.75C17.5396 20.9981 19.2553 20.2863 20.5208 19.0208C21.7862 17.7554 22.498 16.0397 22.5 14.2501V6.75005C22.5 5.9544 22.1839 5.19134 21.6213 4.62873C21.0587 4.06612 20.2957 3.75005 19.5 3.75005ZM21 14.2501C20.9985 15.642 20.4449 16.9765 19.4607 17.9607C18.4764 18.945 17.1419 19.4986 15.75 19.5001H8.25001C6.85808 19.4986 5.52358 18.945 4.53934 17.9607C3.5551 16.9765 3.00149 15.642 3.00001 14.2501V6.75005C3.00001 6.35223 3.15804 5.9707 3.43935 5.68939C3.72065 5.40809 4.10218 5.25005 4.50001 5.25005C4.89783 5.25005 5.27936 5.40809 5.56067 5.68939C5.84197 5.9707 6.00001 6.35223 6.00001 6.75005C6.00001 6.94897 6.07902 7.13973 6.21968 7.28038C6.36033 7.42104 6.55109 7.50005 6.75001 7.50005H17.25C17.4489 7.50005 17.6397 7.42104 17.7803 7.28038C17.921 7.13973 18 6.94897 18 6.75005C18 6.35223 18.158 5.9707 18.4393 5.68939C18.7207 5.40809 19.1022 5.25005 19.5 5.25005C19.8978 5.25005 20.2794 5.40809 20.5607 5.68939C20.842 5.9707 21 6.35223 21 6.75005V14.2501ZM9.75001 13.8751C9.75001 14.0976 9.68403 14.3151 9.56041 14.5001C9.43679 14.6851 9.26109 14.8293 9.05552 14.9144C8.84996 14.9996 8.62376 15.0218 8.40553 14.9784C8.1873 14.935 7.98684 14.8279 7.82951 14.6705C7.67218 14.5132 7.56503 14.3128 7.52162 14.0945C7.47821 13.8763 7.50049 13.6501 7.58564 13.4445C7.67079 13.239 7.81498 13.0633 7.99999 12.9397C8.18499 12.816 8.4025 12.7501 8.62501 12.7501C8.92337 12.7501 9.20952 12.8686 9.4205 13.0796C9.63148 13.2905 9.75001 13.5767 9.75001 13.8751ZM16.5 13.8751C16.5 14.0976 16.434 14.3151 16.3104 14.5001C16.1868 14.6851 16.0111 14.8293 15.8055 14.9144C15.6 14.9996 15.3738 15.0218 15.1555 14.9784C14.9373 14.935 14.7368 14.8279 14.5795 14.6705C14.4222 14.5132 14.315 14.3128 14.2716 14.0945C14.2282 13.8763 14.2505 13.6501 14.3356 13.4445C14.4208 13.239 14.565 13.0633 14.75 12.9397C14.935 12.816 15.1525 12.7501 15.375 12.7501C15.6734 12.7501 15.9595 12.8686 16.1705 13.0796C16.3815 13.2905 16.5 13.5767 16.5 13.8751Z"/>
</svg>
