<svg width="24" height="24" viewBox="0 0 24 24" fill="none" xmlns="http://www.w3.org/2000/svg">
<path d="M4.00875 4.68763C3.92806 4.75756 3.86324 4.84392 3.81862 4.94093C3.774 5.03794 3.7506 5.14335 3.75 5.25013V21.0001C3.75 21.199 3.82902 21.3898 3.96967 21.5305C4.11032 21.6711 4.30109 21.7501 4.5 21.7501C4.69891 21.7501 4.88968 21.6711 5.03033 21.5305C5.17098 21.3898 5.25 21.199 5.25 21.0001V16.8536C7.76156 14.8698 9.92531 15.9395 12.4172 17.1733C13.9547 17.9336 15.6103 18.7529 17.3859 18.7529C18.6919 18.7529 20.0616 18.3076 21.4941 17.0654C21.5747 16.9955 21.6396 16.9091 21.6842 16.8121C21.7288 16.7151 21.7522 16.6097 21.7528 16.5029V5.25013C21.7525 5.10617 21.7107 4.96535 21.6325 4.84449C21.5543 4.72362 21.443 4.62782 21.3118 4.56851C21.1806 4.5092 21.0352 4.48889 20.8928 4.51001C20.7504 4.53114 20.6171 4.5928 20.5087 4.68763C17.8837 6.95919 15.66 5.85857 13.0828 4.58263C10.4128 3.25888 7.38562 1.76169 4.00875 4.68763ZM20.25 16.1486C17.7384 18.1323 15.5747 17.0617 13.0828 15.8289C10.7391 14.6711 8.13187 13.3792 5.25 15.0414V5.60544C7.76156 3.62169 9.92531 4.69138 12.4172 5.92419C14.7609 7.082 17.3691 8.37388 20.25 6.71169V16.1486Z"/>
</svg>
