<svg width="24" height="24" viewBox="0 0 24 24" fill="none" xmlns="http://www.w3.org/2000/svg">
<path d="M17.2116 20.013C17.2745 20.2017 17.2598 20.4077 17.1709 20.5856C17.0819 20.7636 16.9259 20.8989 16.7372 20.9618C16.5485 21.0247 16.3425 21.01 16.1646 20.9211C15.9866 20.8321 15.8513 20.6761 15.7884 20.4874L15.0384 18.2374C15.0073 18.1439 14.9949 18.0453 15.0018 17.947C15.0088 17.8488 15.0351 17.7529 15.0791 17.6648C15.1232 17.5767 15.1842 17.4981 15.2586 17.4336C15.333 17.369 15.4194 17.3198 15.5128 17.2886C15.6063 17.2575 15.7049 17.245 15.8032 17.252C15.9014 17.259 15.9973 17.2853 16.0854 17.3293C16.1735 17.3734 16.2521 17.4343 16.3166 17.5088C16.3812 17.5832 16.4304 17.6696 16.4616 17.763L17.2116 20.013ZM12 17.2502C11.8011 17.2502 11.6103 17.3292 11.4697 17.4699C11.329 17.6105 11.25 17.8013 11.25 18.0002V21.0002C11.25 21.1991 11.329 21.3899 11.4697 21.5305C11.6103 21.6712 11.8011 21.7502 12 21.7502C12.1989 21.7502 12.3897 21.6712 12.5303 21.5305C12.671 21.3899 12.75 21.1991 12.75 21.0002V18.0002C12.75 17.8013 12.671 17.6105 12.5303 17.4699C12.3897 17.3292 12.1989 17.2502 12 17.2502ZM8.48719 17.2886C8.39374 17.2575 8.29508 17.245 8.19683 17.252C8.09857 17.259 8.00266 17.2853 7.91456 17.3293C7.82646 17.3734 7.74789 17.4343 7.68336 17.5087C7.61882 17.5832 7.56958 17.6696 7.53844 17.763L6.78844 20.013C6.72553 20.2017 6.74017 20.4077 6.82913 20.5856C6.91809 20.7636 7.07409 20.8989 7.26281 20.9618C7.45153 21.0247 7.65751 21.01 7.83543 20.9211C8.01336 20.8321 8.14866 20.6761 8.21156 20.4874L8.96156 18.2374C8.99272 18.1439 9.00516 18.0453 8.99818 17.947C8.9912 17.8488 8.96494 17.7529 8.92089 17.6648C8.87684 17.5766 8.81586 17.4981 8.74145 17.4336C8.66703 17.369 8.58064 17.3198 8.48719 17.2886ZM23.25 10.5002C23.25 12.0208 21.9966 13.3961 19.7203 14.3711C17.6456 15.2608 14.9062 15.7502 12 15.7502C9.09375 15.7502 6.35438 15.2608 4.27969 14.3711C2.00344 13.3961 0.75 12.0208 0.75 10.5002C0.75 9.71551 1.09406 8.55113 2.73469 7.45332C3.80062 6.73988 5.26031 6.16332 6.97031 5.77988C7.44717 5.02436 8.08762 4.38557 8.84438 3.91068C9.60115 3.43579 10.4549 3.13692 11.3426 3.03613C12.2304 2.93535 13.1294 3.03522 13.9733 3.32837C14.8173 3.62153 15.5847 4.10048 16.2188 4.72988C16.5422 5.04993 16.8287 5.40528 17.0728 5.78926C20.9466 6.66488 23.25 8.41332 23.25 10.5002ZM7.5 9.07801V9.35926C7.49904 9.52773 7.55541 9.69152 7.65985 9.82372C7.76428 9.95593 7.91057 10.0487 8.07469 10.0868C9.36355 10.3709 10.6802 10.5096 12 10.5002C13.319 10.5108 14.6351 10.3734 15.9234 10.0905C16.0878 10.0526 16.2344 9.96 16.3392 9.8278C16.444 9.6956 16.5007 9.53169 16.5 9.36301V9.0002C16.5001 8.40416 16.3817 7.81406 16.1518 7.26415C15.9219 6.71423 15.5851 6.21547 15.1608 5.79681C14.7366 5.37815 14.2334 5.04795 13.6805 4.82536C13.1276 4.60278 12.536 4.49225 11.94 4.5002C9.49219 4.53207 7.5 6.58613 7.5 9.07801ZM21.75 10.5002C21.75 9.40332 20.1909 8.26051 17.8219 7.53863C17.9404 8.01678 18.0002 8.50758 18 9.0002V9.36769C18.0008 9.87518 17.829 10.3678 17.5128 10.7648C17.1966 11.1617 16.7548 11.4393 16.26 11.5521C14.8613 11.8605 13.4323 12.0108 12 12.0002C10.5677 12.0107 9.13876 11.8604 7.74 11.5521C7.2452 11.4393 6.80343 11.1617 6.48724 10.7648C6.17105 10.3678 5.99923 9.87518 6 9.36769V9.08082C6.00016 8.55816 6.06726 8.03767 6.19969 7.53207C3.8175 8.25019 2.25 9.39863 2.25 10.5002C2.25 12.2739 6.25406 14.2502 12 14.2502C17.7459 14.2502 21.75 12.2739 21.75 10.5002Z"/>
</svg>
