<svg width="24" height="24" viewBox="0 0 24 24" fill="none" xmlns="http://www.w3.org/2000/svg">
<path d="M10.5 10.875C10.5 11.0975 10.434 11.315 10.3104 11.5C10.1868 11.685 10.0111 11.8292 9.80552 11.9144C9.59995 11.9995 9.37375 12.0218 9.15552 11.9784C8.93729 11.935 8.73684 11.8278 8.5795 11.6705C8.42217 11.5132 8.31502 11.3127 8.27162 11.0945C8.22821 10.8762 8.25049 10.65 8.33564 10.4445C8.42078 10.2389 8.56498 10.0632 8.74998 9.9396C8.93499 9.81598 9.1525 9.75 9.375 9.75C9.67337 9.75 9.95952 9.86853 10.1705 10.0795C10.3815 10.2905 10.5 10.5766 10.5 10.875ZM14.625 9.75C14.4025 9.75 14.185 9.81598 14 9.9396C13.815 10.0632 13.6708 10.2389 13.5856 10.4445C13.5005 10.65 13.4782 10.8762 13.5216 11.0945C13.565 11.3127 13.6722 11.5132 13.8295 11.6705C13.9868 11.8278 14.1873 11.935 14.4055 11.9784C14.6238 12.0218 14.85 11.9995 15.0555 11.9144C15.2611 11.8292 15.4368 11.685 15.5604 11.5C15.684 11.315 15.75 11.0975 15.75 10.875C15.75 10.5766 15.6315 10.2905 15.4205 10.0795C15.2095 9.86853 14.9234 9.75 14.625 9.75ZM21 11.25V20.25C21 20.392 20.9597 20.5312 20.8838 20.6512C20.8078 20.7712 20.6994 20.8672 20.571 20.928C20.4427 20.9888 20.2997 21.0119 20.1587 20.9946C20.0177 20.9773 19.8846 20.9203 19.7747 20.8303L17.5003 18.9694L15.225 20.8303C15.091 20.9399 14.9233 20.9998 14.7502 20.9998C14.5771 20.9998 14.4093 20.9399 14.2753 20.8303L12 18.9694L9.72469 20.8303C9.5907 20.9399 9.42294 20.9998 9.24984 20.9998C9.07675 20.9998 8.90898 20.9399 8.775 20.8303L6.49969 18.9694L4.22531 20.8303C4.11545 20.9203 3.98228 20.9773 3.8413 20.9946C3.70033 21.0119 3.55734 20.9888 3.42898 20.928C3.30062 20.8672 3.19215 20.7712 3.11621 20.6512C3.04027 20.5312 2.99997 20.392 3 20.25V11.25C3 8.86305 3.94821 6.57387 5.63604 4.88604C7.32387 3.19821 9.61305 2.25 12 2.25C14.3869 2.25 16.6761 3.19821 18.364 4.88604C20.0518 6.57387 21 8.86305 21 11.25ZM19.5 11.25C19.5 9.26088 18.7098 7.35322 17.3033 5.9467C15.8968 4.54018 13.9891 3.75 12 3.75C10.0109 3.75 8.10322 4.54018 6.6967 5.9467C5.29018 7.35322 4.5 9.26088 4.5 11.25V18.6675L6.02531 17.4197C6.1593 17.3101 6.32706 17.2502 6.50016 17.2502C6.67325 17.2502 6.84102 17.3101 6.975 17.4197L9.25031 19.2806L11.5247 17.4197C11.6587 17.3099 11.8267 17.2498 12 17.2498C12.1733 17.2498 12.3413 17.3099 12.4753 17.4197L14.7497 19.2806L17.025 17.4197C17.159 17.3101 17.3267 17.2502 17.4998 17.2502C17.6729 17.2502 17.8407 17.3101 17.9747 17.4197L19.5 18.6675V11.25Z"/>
</svg>
