<svg width="24" height="24" viewBox="0 0 24 24" fill="none" xmlns="http://www.w3.org/2000/svg">
<path d="M16.6875 3.75002C15.9239 3.74798 15.1675 3.8974 14.462 4.18963C13.7565 4.48187 13.116 4.91111 12.5775 5.45252L12 6.03002L11.4225 5.45252C10.6096 4.63965 9.57393 4.08608 8.44643 3.86182C7.31893 3.63755 6.15025 3.75266 5.08817 4.19258C4.02609 4.63251 3.11831 5.37749 2.47962 6.33333C1.84093 7.28917 1.50002 8.41293 1.5 9.56252C1.5 16.125 11.2303 21.4378 11.6447 21.6563C11.7539 21.715 11.876 21.7458 12 21.7458C12.124 21.7458 12.2461 21.715 12.3553 21.6563C12.7697 21.4378 22.5 16.125 22.5 9.56252C22.4983 8.02148 21.8853 6.54406 20.7956 5.45438C19.706 4.3647 18.2285 3.75176 16.6875 3.75002ZM12 20.1375C10.2881 19.14 3 14.596 3 9.56252C2.99989 8.7095 3.25275 7.87561 3.7266 7.16632C4.20046 6.45703 4.87402 5.90419 5.6621 5.57774C6.45018 5.25129 7.31737 5.16589 8.15399 5.33234C8.99061 5.49878 9.75907 5.9096 10.3622 6.51283L10.9397 7.09033L9.96937 8.06252C9.82883 8.20316 9.74988 8.39385 9.74988 8.59268C9.74988 8.7915 9.82883 8.98219 9.96937 9.12283L12.2691 11.4225L10.7194 12.9713C10.5786 13.112 10.4996 13.3029 10.4996 13.5019C10.4996 13.7009 10.5786 13.8918 10.7194 14.0325C10.8601 14.1733 11.051 14.2523 11.25 14.2523C11.449 14.2523 11.6399 14.1733 11.7806 14.0325L13.86 11.9522C14.0005 11.8116 14.0795 11.6209 14.0795 11.4221C14.0795 11.2232 14.0005 11.0325 13.86 10.8919L11.5603 8.59033L13.6378 6.51283C14.2409 5.9096 15.0094 5.49878 15.846 5.33234C16.6826 5.16589 17.5498 5.25129 18.3379 5.57774C19.126 5.90419 19.7995 6.45703 20.2734 7.16632C20.7473 7.87561 21.0001 8.7095 21 9.56252C21 14.5885 13.71 19.1391 12 20.1375Z"/>
</svg>
