<svg width="24" height="24" viewBox="0 0 24 24" fill="none" xmlns="http://www.w3.org/2000/svg">
<path d="M15.5304 8.46975C15.6001 8.53941 15.6555 8.62213 15.6932 8.71317C15.7309 8.80422 15.7504 8.90182 15.7504 9.00038C15.7504 9.09894 15.7309 9.19654 15.6932 9.28758C15.6555 9.37863 15.6001 9.46135 15.5304 9.531L9.5304 15.531C9.46072 15.6007 9.378 15.656 9.28695 15.6937C9.19591 15.7314 9.09833 15.7508 8.99978 15.7508C8.90123 15.7508 8.80365 15.7314 8.71261 15.6937C8.62156 15.656 8.53884 15.6007 8.46915 15.531C8.39947 15.4613 8.3442 15.3786 8.30648 15.2876C8.26877 15.1965 8.24936 15.0989 8.24936 15.0004C8.24936 14.9018 8.26877 14.8043 8.30648 14.7132C8.3442 14.6222 8.39947 14.5394 8.46915 14.4698L14.4692 8.46975C14.5388 8.40002 14.6215 8.3447 14.7126 8.30696C14.8036 8.26922 14.9012 8.24979 14.9998 8.24979C15.0983 8.24979 15.1959 8.26922 15.287 8.30696C15.378 8.3447 15.4607 8.40002 15.5304 8.46975ZM20.2123 3.78788C19.7248 3.30031 19.146 2.91355 18.509 2.64968C17.872 2.38581 17.1893 2.25 16.4998 2.25C15.8103 2.25 15.1276 2.38581 14.4906 2.64968C13.8536 2.91355 13.2748 3.30031 12.7873 3.78788L9.96915 6.60507C9.82842 6.7458 9.74936 6.93667 9.74936 7.13569C9.74936 7.33471 9.82842 7.52559 9.96915 7.66632C10.1099 7.80705 10.3008 7.88611 10.4998 7.88611C10.6988 7.88611 10.8897 7.80705 11.0304 7.66632L13.8485 4.85382C14.5544 4.16349 15.5039 3.77936 16.4912 3.7848C17.4785 3.79024 18.4238 4.1848 19.122 4.88286C19.8202 5.58092 20.2149 6.52615 20.2205 7.51343C20.2261 8.50071 19.8422 9.45037 19.152 10.1563L16.3329 12.9744C16.1922 13.115 16.1131 13.3058 16.113 13.5047C16.1129 13.7037 16.1918 13.8945 16.3324 14.0352C16.473 14.176 16.6638 14.2551 16.8627 14.2552C17.0617 14.2552 17.2525 14.1763 17.3932 14.0357L20.2123 11.2129C20.6998 10.7254 21.0866 10.1466 21.3505 9.50959C21.6143 8.8726 21.7502 8.18986 21.7502 7.50038C21.7502 6.81089 21.6143 6.12816 21.3505 5.49117C21.0866 4.85417 20.6998 4.27539 20.2123 3.78788ZM12.9692 16.3335L10.151 19.1516C9.80423 19.5062 9.39053 19.7885 8.93389 19.9821C8.47725 20.1757 7.98674 20.2768 7.49075 20.2795C6.99477 20.2823 6.50318 20.1866 6.04443 19.998C5.58569 19.8094 5.1689 19.5317 4.81822 19.181C4.46753 18.8302 4.18991 18.4134 4.00143 17.9546C3.81294 17.4959 3.71734 17.0042 3.72016 16.5083C3.72298 16.0123 3.82416 15.5218 4.01785 15.0652C4.21154 14.6086 4.49388 14.1949 4.84853 13.8482L7.66572 11.031C7.80645 10.8903 7.88551 10.6994 7.88551 10.5004C7.88551 10.3014 7.80645 10.1105 7.66572 9.96975C7.52499 9.82902 7.33412 9.74996 7.13509 9.74996C6.93607 9.74996 6.7452 9.82902 6.60447 9.96975L3.78728 12.7879C2.80266 13.7725 2.24951 15.1079 2.24951 16.5004C2.24951 17.8928 2.80266 19.2283 3.78728 20.2129C4.7719 21.1975 6.10732 21.7506 7.49978 21.7506C8.89224 21.7506 10.2277 21.1975 11.2123 20.2129L14.0304 17.3938C14.171 17.2531 14.25 17.0623 14.2499 16.8633C14.2498 16.6644 14.1707 16.4736 14.0299 16.333C13.8892 16.1924 13.6984 16.1135 13.4994 16.1136C13.3005 16.1137 13.1098 16.1928 12.9692 16.3335Z"/>
</svg>
