<svg width="24" height="24" viewBox="0 0 24 24" fill="none" xmlns="http://www.w3.org/2000/svg">
<path d="M17.25 6.74955C17.2501 5.74321 16.961 4.75803 16.417 3.91135C15.8731 3.06467 15.0973 2.39217 14.1819 1.97392C13.2666 1.55568 12.2504 1.40931 11.2542 1.55226C10.2581 1.69521 9.32403 2.12146 8.56327 2.78023C7.80251 3.439 7.24711 4.30254 6.96322 5.26802C6.67934 6.23349 6.67892 7.26022 6.96202 8.22593C7.24512 9.19163 7.79981 10.0556 8.56003 10.715C9.32025 11.3744 10.254 11.8014 11.25 11.9452V21.7496C11.25 21.9485 11.329 22.1392 11.4697 22.2799C11.6103 22.4205 11.8011 22.4996 12 22.4996C12.1989 22.4996 12.3897 22.4205 12.5303 22.2799C12.671 22.1392 12.75 21.9485 12.75 21.7496V11.9452C13.9987 11.7632 15.1403 11.1382 15.9664 10.1844C16.7925 9.23054 17.2481 8.01142 17.25 6.74955ZM12 10.4996C11.2583 10.4996 10.5333 10.2796 9.91661 9.86756C9.29993 9.45551 8.81928 8.86984 8.53545 8.18462C8.25162 7.49939 8.17736 6.74539 8.32205 6.01797C8.46675 5.29054 8.8239 4.62235 9.34835 4.0979C9.8728 3.57346 10.541 3.2163 11.2684 3.07161C11.9958 2.92691 12.7498 3.00118 13.4351 3.28501C14.1203 3.56883 14.706 4.04948 15.118 4.66617C15.5301 5.28285 15.75 6.00787 15.75 6.74955C15.75 7.24201 15.653 7.72965 15.4645 8.18462C15.2761 8.63959 14.9999 9.05298 14.6517 9.4012C14.3034 9.74942 13.89 10.0256 13.4351 10.2141C12.9801 10.4026 12.4925 10.4996 12 10.4996Z"/>
</svg>
