<svg width="24" height="24" viewBox="0 0 24 24" fill="none" xmlns="http://www.w3.org/2000/svg">
<path d="M23.2155 4.48999C23.2047 4.30651 23.127 4.13335 22.9971 4.00338C22.8671 3.87342 22.6939 3.7957 22.5105 3.78499C17.658 3.50374 13.7617 4.97936 12.0873 7.74311C10.9811 9.5703 10.983 11.7894 12.0723 13.9062C11.4523 14.6444 10.9991 15.5079 10.7439 16.4375L9.21859 14.9066C9.95171 13.3756 9.92359 11.78 9.12484 10.4544C7.88734 8.41155 5.03078 7.31655 1.48421 7.52468C1.30073 7.53539 1.12757 7.61311 0.997607 7.74307C0.867644 7.87303 0.789928 8.04619 0.779212 8.22968C0.57015 11.7762 1.66609 14.6328 3.7089 15.8703C4.38302 16.2822 5.15767 16.5002 5.94765 16.5003C6.71443 16.4909 7.46928 16.3092 8.1564 15.9687L10.5002 18.3125V21.0003C10.5002 21.1992 10.5792 21.39 10.7198 21.5306C10.8605 21.6713 11.0512 21.7503 11.2502 21.7503C11.4491 21.7503 11.6398 21.6713 11.7805 21.5306C11.9211 21.39 12.0002 21.1992 12.0002 21.0003V18.2356C11.9968 17.0425 12.4028 15.8843 13.1505 14.9544C14.1151 15.4585 15.1849 15.7283 16.2733 15.7419C17.3255 15.7453 18.3582 15.4578 19.2573 14.9112C22.0211 13.2387 23.5005 9.34249 23.2155 4.48999ZM4.48234 14.5878C3.04421 13.7169 2.23046 11.6553 2.25015 9.0003C4.90515 8.9778 6.96671 9.79436 7.83765 11.2325C8.29234 11.9825 8.3664 12.8572 8.06828 13.7581L5.77984 11.4697C5.63804 11.335 5.44923 11.261 5.25366 11.2635C5.05809 11.266 4.87123 11.3448 4.73293 11.4831C4.59463 11.6214 4.51582 11.8082 4.51332 12.0038C4.51082 12.1994 4.58481 12.3882 4.71953 12.53L7.00796 14.8184C6.10703 15.1166 5.23328 15.0425 4.48234 14.5878ZM18.4802 13.6297C17.2239 14.39 15.7473 14.4481 14.2473 13.8172L19.2808 8.7828C19.4155 8.641 19.4895 8.45219 19.487 8.25662C19.4845 8.06105 19.4057 7.87419 19.2674 7.73589C19.1291 7.59759 18.9422 7.51879 18.7466 7.51628C18.5511 7.51378 18.3623 7.58777 18.2205 7.72249L13.1861 12.7503C12.5523 11.2503 12.6095 9.7728 13.3736 8.51749C14.6805 6.36124 17.7798 5.15936 21.7483 5.25218C21.8383 9.21968 20.6383 12.3228 18.4802 13.6297Z"/>
</svg>
