<svg width="24" height="24" viewBox="0 0 24 24" fill="none" xmlns="http://www.w3.org/2000/svg">
<path d="M8.625 9.75C8.10582 9.75 7.59831 9.90395 7.16663 10.1924C6.73495 10.4808 6.3985 10.8908 6.19982 11.3705C6.00114 11.8501 5.94915 12.3779 6.05044 12.8871C6.15172 13.3963 6.40173 13.864 6.76884 14.2312C7.13596 14.5983 7.60369 14.8483 8.11289 14.9496C8.62209 15.0508 9.14989 14.9989 9.62954 14.8002C10.1092 14.6015 10.5192 14.2651 10.8076 13.8334C11.096 13.4017 11.25 12.8942 11.25 12.375C11.25 11.6788 10.9734 11.0111 10.4812 10.5188C9.98887 10.0266 9.32119 9.75 8.625 9.75ZM8.625 13.5C8.4025 13.5 8.18499 13.434 7.99998 13.3104C7.81498 13.1868 7.67078 13.0111 7.58564 12.8055C7.50049 12.6 7.47821 12.3738 7.52162 12.1555C7.56502 11.9373 7.67217 11.7368 7.8295 11.5795C7.98684 11.4222 8.18729 11.315 8.40552 11.2716C8.62375 11.2282 8.84995 11.2505 9.05552 11.3356C9.26109 11.4208 9.43679 11.565 9.5604 11.75C9.68402 11.935 9.75 12.1525 9.75 12.375C9.75 12.6734 9.63147 12.9595 9.4205 13.1705C9.20952 13.3815 8.92337 13.5 8.625 13.5ZM15.375 9.75C14.8558 9.75 14.3483 9.90395 13.9166 10.1924C13.4849 10.4808 13.1485 10.8908 12.9498 11.3705C12.7511 11.8501 12.6992 12.3779 12.8004 12.8871C12.9017 13.3963 13.1517 13.864 13.5188 14.2312C13.886 14.5983 14.3537 14.8483 14.8629 14.9496C15.3721 15.0508 15.8999 14.9989 16.3795 14.8002C16.8592 14.6015 17.2692 14.2651 17.5576 13.8334C17.846 13.4017 18 12.8942 18 12.375C18 11.6788 17.7234 11.0111 17.2312 10.5188C16.7389 10.0266 16.0712 9.75 15.375 9.75ZM15.375 13.5C15.1525 13.5 14.935 13.434 14.75 13.3104C14.565 13.1868 14.4208 13.0111 14.3356 12.8055C14.2505 12.6 14.2282 12.3738 14.2716 12.1555C14.315 11.9373 14.4222 11.7368 14.5795 11.5795C14.7368 11.4222 14.9373 11.315 15.1555 11.2716C15.3738 11.2282 15.6 11.2505 15.8055 11.3356C16.0111 11.4208 16.1868 11.565 16.3104 11.75C16.434 11.935 16.5 12.1525 16.5 12.375C16.5 12.6734 16.3815 12.9595 16.1705 13.1705C15.9595 13.3815 15.6734 13.5 15.375 13.5ZM12 1.5C6.62344 1.5 2.25 5.70563 2.25 10.875C2.25 14.0719 3.96281 17.0625 6.75 18.7762V20.25C6.75 20.6478 6.90804 21.0294 7.18934 21.3107C7.47064 21.592 7.85218 21.75 8.25 21.75H15.75C16.1478 21.75 16.5294 21.592 16.8107 21.3107C17.092 21.0294 17.25 20.6478 17.25 20.25V18.7762C20.0372 17.0625 21.75 14.0719 21.75 10.875C21.75 5.70563 17.3766 1.5 12 1.5ZM16.1362 17.6897C16.0191 17.7546 15.9216 17.8497 15.8536 17.9651C15.7857 18.0805 15.7499 18.212 15.75 18.3459V20.25H14.25V18C14.25 17.8011 14.171 17.6103 14.0303 17.4697C13.8897 17.329 13.6989 17.25 13.5 17.25C13.3011 17.25 13.1103 17.329 12.9697 17.4697C12.829 17.6103 12.75 17.8011 12.75 18V20.25H11.25V18C11.25 17.8011 11.171 17.6103 11.0303 17.4697C10.8897 17.329 10.6989 17.25 10.5 17.25C10.3011 17.25 10.1103 17.329 9.96967 17.4697C9.82902 17.6103 9.75 17.8011 9.75 18V20.25H8.25V18.3459C8.25007 18.212 8.21428 18.0805 8.14636 17.9651C8.07843 17.8497 7.98085 17.7546 7.86375 17.6897C5.32594 16.2834 3.75 13.6725 3.75 10.875C3.75 6.5325 7.45125 3 12 3C16.5488 3 20.25 6.5325 20.25 10.875C20.25 13.6716 18.6741 16.2834 16.1362 17.6897Z"/>
</svg>
