<svg width="24" height="24" viewBox="0 0 24 24" fill="none" xmlns="http://www.w3.org/2000/svg">
<path d="M12.3356 1.57929C12.2314 1.52715 12.1165 1.5 12 1.5C11.8835 1.5 11.7686 1.52715 11.6644 1.57929C11.28 1.77147 2.25 6.3596 2.25 12.7496C2.24966 13.5853 2.44885 14.4091 2.831 15.1523C3.21315 15.8956 3.76722 16.5369 4.44714 17.0229C5.12706 17.5089 5.91317 17.8255 6.74011 17.9465C7.56706 18.0674 8.41093 17.9892 9.20156 17.7183L8.28188 20.784C8.24826 20.8959 8.2413 21.0142 8.26153 21.1294C8.28176 21.2445 8.32863 21.3534 8.39839 21.4472C8.46816 21.541 8.55889 21.6172 8.66335 21.6697C8.7678 21.7222 8.88309 21.7496 9 21.7496H15C15.1169 21.7496 15.2322 21.7222 15.3367 21.6697C15.4411 21.6172 15.5318 21.541 15.6016 21.4472C15.6714 21.3534 15.7182 21.2445 15.7385 21.1294C15.7587 21.0142 15.7517 20.8959 15.7181 20.784L14.7984 17.7183C15.5891 17.9892 16.4329 18.0674 17.2599 17.9465C18.0868 17.8255 18.8729 17.5089 19.5529 17.0229C20.2328 16.5369 20.7869 15.8956 21.169 15.1523C21.5512 14.4091 21.7503 13.5853 21.75 12.7496C21.75 6.3596 12.72 1.77147 12.3356 1.57929ZM16.5 16.4996C15.5939 16.4997 14.7183 16.1716 14.0353 15.5762C13.9127 15.4693 13.7587 15.4051 13.5965 15.3934C13.4343 15.3816 13.2727 15.4229 13.136 15.5111C12.9993 15.5992 12.8949 15.7294 12.8387 15.882C12.7824 16.0346 12.7773 16.2013 12.8241 16.3571L13.9922 20.2496H10.0078L11.1759 16.3571C11.2227 16.2013 11.2176 16.0346 11.1613 15.882C11.1051 15.7294 11.0007 15.5992 10.864 15.5111C10.7273 15.4229 10.5657 15.3816 10.4035 15.3934C10.2413 15.4051 10.0873 15.4693 9.96469 15.5762C9.4221 16.0493 8.75478 16.3563 8.04242 16.4605C7.33007 16.5646 6.60279 16.4615 5.94746 16.1634C5.29213 15.8654 4.73645 15.385 4.34679 14.7796C3.95712 14.1743 3.74994 13.4695 3.75 12.7496C3.75 9.94835 6.03844 7.44804 7.95844 5.84397C9.21708 4.80494 10.5702 3.88594 12 3.09897C13.4298 3.88594 14.7829 4.80494 16.0416 5.84397C19.5197 8.75022 20.25 11.2037 20.25 12.7496C20.25 13.7442 19.8549 14.698 19.1517 15.4012C18.4484 16.1045 17.4946 16.4996 16.5 16.4996Z"/>
</svg>
