<svg width="24" height="24" viewBox="0 0 24 24" fill="none" xmlns="http://www.w3.org/2000/svg">
<path d="M22.0603 12L12.75 2.68969C12.6112 2.5498 12.446 2.43889 12.264 2.36341C12.082 2.28792 11.8868 2.24938 11.6897 2.25001H3.00001C2.8011 2.25001 2.61033 2.32903 2.46968 2.46968C2.32903 2.61033 2.25001 2.8011 2.25001 3.00001V11.6897C2.24938 11.8868 2.28792 12.082 2.36341 12.264C2.43889 12.446 2.5498 12.6112 2.68969 12.75L12 22.0603C12.1393 22.1996 12.3047 22.3102 12.4867 22.3856C12.6687 22.461 12.8638 22.4998 13.0608 22.4998C13.2578 22.4998 13.4529 22.461 13.6349 22.3856C13.8169 22.3102 13.9823 22.1996 14.1216 22.0603L22.0603 14.1216C22.1996 13.9823 22.3102 13.8169 22.3856 13.6349C22.461 13.4529 22.4998 13.2578 22.4998 13.0608C22.4998 12.8638 22.461 12.6687 22.3856 12.4867C22.3102 12.3047 22.1996 12.1393 22.0603 12ZM13.0603 21L3.75001 11.6897V3.75001H11.6897L21 13.0603L13.0603 21ZM8.25001 7.12501C8.25001 7.34751 8.18403 7.56502 8.06041 7.75002C7.93679 7.93503 7.76109 8.07922 7.55553 8.16437C7.34996 8.24952 7.12376 8.2718 6.90553 8.22839C6.6873 8.18498 6.48685 8.07784 6.32951 7.9205C6.17218 7.76317 6.06503 7.56271 6.02162 7.34448C5.97822 7.12626 6.00049 6.90006 6.08564 6.69449C6.17079 6.48892 6.31499 6.31322 6.49999 6.1896C6.685 6.06599 6.9025 6.00001 7.12501 6.00001C7.42338 6.00001 7.70952 6.11853 7.9205 6.32951C8.13148 6.54049 8.25001 6.82664 8.25001 7.12501Z"/>
</svg>
