<svg width="24" height="24" viewBox="0 0 24 24" fill="none" xmlns="http://www.w3.org/2000/svg">
<path d="M22.4999 12.0004V18.0004C22.4999 18.1993 22.4209 18.3901 22.2803 18.5307C22.1396 18.6714 21.9488 18.7504 21.7499 18.7504H15.7499C15.551 18.7504 15.3603 18.6714 15.2196 18.5307C15.0789 18.3901 14.9999 18.1993 14.9999 18.0004C14.9999 17.8015 15.0789 17.6107 15.2196 17.4701C15.3603 17.3294 15.551 17.2504 15.7499 17.2504H19.9396L12.7499 10.0607L9.53055 13.281C9.4609 13.3508 9.37818 13.4061 9.28713 13.4438C9.19609 13.4816 9.09849 13.501 8.99993 13.501C8.90137 13.501 8.80377 13.4816 8.71272 13.4438C8.62167 13.4061 8.53896 13.3508 8.4693 13.281L1.7193 6.53104C1.57857 6.39031 1.49951 6.19944 1.49951 6.00042C1.49951 5.80139 1.57857 5.61052 1.7193 5.46979C1.86003 5.32906 2.05091 5.25 2.24993 5.25C2.44895 5.25 2.63982 5.32906 2.78055 5.46979L8.99993 11.6901L12.2193 8.46979C12.289 8.40006 12.3717 8.34474 12.4627 8.307C12.5538 8.26925 12.6514 8.24983 12.7499 8.24983C12.8485 8.24983 12.9461 8.26925 13.0371 8.307C13.1282 8.34474 13.2109 8.40006 13.2806 8.46979L20.9999 16.1901V12.0004C20.9999 11.8015 21.0789 11.6107 21.2196 11.4701C21.3603 11.3294 21.551 11.2504 21.7499 11.2504C21.9488 11.2504 22.1396 11.3294 22.2803 11.4701C22.4209 11.6107 22.4999 11.8015 22.4999 12.0004Z"/>
</svg>
