<svg width="16" height="16" viewBox="0 0 16 16" fill="none" xmlns="http://www.w3.org/2000/svg">
<path d="M8.00098 1.32812C11.6827 1.32837 14.667 4.31337 14.667 7.99512C14.6669 11.6767 11.6826 14.6609 8.00098 14.6611C4.31917 14.6611 1.33413 11.6769 1.33398 7.99512C1.33398 4.31322 4.31908 1.32812 8.00098 1.32812ZM7.99414 9.79199C7.71905 9.79199 7.48363 9.88941 7.28809 10.085C7.09255 10.2772 6.99669 10.5095 7 10.7812C6.99673 11.0563 7.09258 11.2918 7.28809 11.4873C7.48362 11.6795 7.71909 11.7754 7.99414 11.7754C8.17303 11.7754 8.33724 11.731 8.48633 11.6416C8.63548 11.5521 8.75524 11.4324 8.84473 11.2832C8.93742 11.1308 8.98494 10.9634 8.98828 10.7812C8.98497 10.5095 8.88592 10.2772 8.69043 10.085C8.49488 9.88941 8.26261 9.79199 7.99414 9.79199ZM7.17383 3.49902L7.30273 8.75293H8.68066L8.80957 3.49902H7.17383Z" fill="var(--color-base-light-black)"/>
</svg>
