<svg width="16" height="16" viewBox="0 0 16 16" fill="none" xmlns="http://www.w3.org/2000/svg">
<path d="M8 1.33203C11.6819 1.33203 14.667 4.31713 14.667 7.99902C14.667 11.6809 11.6819 14.666 8 14.666C4.31833 14.6658 1.33398 11.6808 1.33398 7.99902C1.33398 4.31729 4.31833 1.33229 8 1.33203ZM7.79492 10.8877C7.55852 10.8877 7.35565 10.9762 7.18555 11.1514C7.01549 11.3236 6.92973 11.531 6.92969 11.7744C6.92969 12.0209 7.01541 12.232 7.18555 12.4072C7.35561 12.5793 7.55861 12.666 7.79492 12.666C7.95352 12.666 8.09777 12.6251 8.22754 12.5449C8.35723 12.4647 8.46123 12.3582 8.53906 12.2246C8.61981 12.088 8.66016 11.9378 8.66016 11.7744C8.66011 11.531 8.57329 11.3236 8.40039 11.1514C8.23025 10.9761 8.0285 10.8877 7.79492 10.8877ZM8.01562 3.33203C7.53118 3.33204 7.08832 3.42711 6.6875 3.61719C6.28972 3.80721 5.96972 4.08793 5.72754 4.45898C5.48535 4.8272 5.35421 5.27899 5.33398 5.81348H6.64844C6.66865 5.49878 6.74532 5.24191 6.87793 5.04297C7.01058 4.84101 7.17803 4.6927 7.37988 4.59766C7.58173 4.50262 7.7936 4.45508 8.01562 4.45508C8.26067 4.45508 8.48271 4.50837 8.68164 4.61523C8.88339 4.71913 9.04492 4.86765 9.16602 5.06055C9.28713 5.2536 9.34766 5.48274 9.34766 5.74707C9.34764 5.9668 9.30729 6.1675 9.22656 6.34863C9.14591 6.52951 9.03659 6.68968 8.89844 6.8291C8.76002 6.96869 8.60368 7.09515 8.43066 7.20801C8.16252 7.37431 7.93346 7.5588 7.74316 7.76074C7.55287 7.9627 7.40556 8.22704 7.30176 8.55371C7.20087 8.88035 7.14738 9.31984 7.1416 9.87207V9.95703H8.37891V9.87207C8.38468 9.53075 8.42207 9.24426 8.49121 9.0127C8.56042 8.78103 8.67036 8.58042 8.82031 8.41113C8.97314 8.24186 9.17191 8.0783 9.41699 7.9209C9.67652 7.76052 9.89845 7.57607 10.083 7.36816C10.2704 7.16029 10.4147 6.92444 10.5156 6.66016C10.6165 6.39297 10.6669 6.09321 10.667 5.76074C10.667 5.27663 10.556 4.85258 10.334 4.49023C10.1148 4.12508 9.80603 3.84155 9.4082 3.63965C9.01031 3.43479 8.54612 3.33203 8.01562 3.33203Z" />
</svg>
