<svg width="16" height="16" viewBox="0 0 16 16" fill="none" xmlns="http://www.w3.org/2000/svg">
<path d="M4.91901 6.79448L3.43004 8.28345C2.87395 8.83954 2.55416 9.59618 2.56 10.3914C2.56585 11.1866 2.87864 11.9479 3.46111 12.5123C4.02557 13.0948 4.78699 13.4076 5.58207 13.4135C6.39529 13.4194 7.13402 13.1177 7.69014 12.5616L9.17911 11.0726M11.081 9.20709L12.57 7.71813C13.126 7.16204 13.4458 6.40539 13.44 5.61019C13.4341 4.81498 13.1214 4.05372 12.5389 3.48923C11.9746 2.92491 11.2133 2.6121 10.4181 2.60626C9.62285 2.60041 8.86611 2.90205 8.30999 3.45815L6.82102 4.94712M5.74207 10.2189L10.209 5.75199" stroke="var(--color-base-light-black)" stroke-width="1.5" stroke-linecap="round" stroke-linejoin="round"/>
</svg>
