<svg width="16" height="16" viewBox="0 0 16 16" fill="none" xmlns="http://www.w3.org/2000/svg">
<path d="M8.00098 1.32812C11.6827 1.32837 14.667 4.31337 14.667 7.99512C14.6669 11.6767 11.6826 14.6609 8.00098 14.6611C4.31917 14.6611 1.33413 11.6769 1.33398 7.99512C1.33398 4.31322 4.31908 1.32812 8.00098 1.32812ZM7.79492 10.8838C7.55868 10.8838 7.35558 10.9715 7.18555 11.1465C7.01541 11.3187 6.92969 11.527 6.92969 11.7705C6.92969 12.017 7.01541 12.2281 7.18555 12.4033C7.35559 12.5754 7.55865 12.6611 7.79492 12.6611C7.95352 12.6611 8.09777 12.6212 8.22754 12.541C8.35723 12.4609 8.46122 12.3543 8.53906 12.2207C8.61981 12.0841 8.66016 11.9339 8.66016 11.7705C8.66016 11.527 8.57341 11.3187 8.40039 11.1465C8.23031 10.9714 8.02837 10.8838 7.79492 10.8838ZM8.01562 3.32812C7.53118 3.32813 7.08832 3.4232 6.6875 3.61328C6.28971 3.80333 5.96972 4.08398 5.72754 4.45508C5.48532 4.82334 5.35418 5.275 5.33398 5.80957H6.64844C6.66862 5.49485 6.74535 5.23802 6.87793 5.03906C7.01056 4.83712 7.17806 4.68879 7.37988 4.59375C7.58173 4.49871 7.7936 4.45118 8.01562 4.45117C8.2607 4.45117 8.48269 4.50443 8.68164 4.61133C8.88343 4.71525 9.04491 4.86368 9.16602 5.05664C9.28713 5.24969 9.34766 5.47883 9.34766 5.74316C9.34762 5.96281 9.30726 6.16365 9.22656 6.34473C9.1459 6.52558 9.03659 6.6858 8.89844 6.8252C8.76002 6.96479 8.60368 7.09124 8.43066 7.2041C8.16256 7.37039 7.93344 7.55492 7.74316 7.75684C7.55292 7.95878 7.40554 8.22319 7.30176 8.5498C7.2009 8.87647 7.14737 9.31594 7.1416 9.86816V9.95312H8.37891V9.86816C8.38467 9.52685 8.42209 9.24036 8.49121 9.00879C8.56041 8.77717 8.67041 8.5765 8.82031 8.40723C8.97312 8.23797 9.17194 8.07438 9.41699 7.91699C9.67652 7.75661 9.89845 7.57216 10.083 7.36426C10.2704 7.1564 10.4147 6.92051 10.5156 6.65625C10.6166 6.38895 10.667 6.0885 10.667 5.75586C10.6669 5.27188 10.556 4.84859 10.334 4.48633C10.1148 4.12111 9.80608 3.83767 9.4082 3.63574C9.01029 3.43086 8.54615 3.32812 8.01562 3.32812Z" fill="var(--color-base-main)"/>
</svg>
