<svg width="16" height="16" viewBox="0 0 16 16" fill="none" xmlns="http://www.w3.org/2000/svg">
<path d="M14.264 7.39589V8.60175C14.264 8.92371 13.9895 9.18712 13.6401 9.19883H12.4173C11.7435 9.19883 11.1258 8.73639 11.0697 8.10419C11.0322 7.73541 11.182 7.39004 11.444 7.15004C11.6748 6.9276 11.993 6.79883 12.3424 6.79883H13.6401C13.9895 6.81054 14.264 7.07394 14.264 7.39589Z" fill="var(--color-base-light-black)"/>
<path d="M13.2928 10.1706H12.4184C11.2568 10.1706 10.2785 9.29577 10.1807 8.18236C10.1257 7.54613 10.358 6.90989 10.8227 6.45718C11.214 6.05342 11.7581 5.82707 12.3451 5.82707H13.2928C13.4701 5.82707 13.6168 5.68024 13.5985 5.50283C13.464 4.01624 12.4796 3.00071 11.0183 2.82942C10.8716 2.80495 10.7187 2.79883 10.5598 2.79883H5.05705C4.88586 2.79883 4.72078 2.81106 4.56181 2.83553C3.00271 3.0313 2 4.19365 2 5.85765V10.14C2 11.8285 3.36956 13.1988 5.05705 13.1988H10.5598C12.2717 13.1988 13.4517 12.1282 13.5985 10.4948C13.6168 10.3174 13.4701 10.1706 13.2928 10.1706ZM8.72552 6.62236H5.05705C4.80638 6.62236 4.5985 6.41436 4.5985 6.16354C4.5985 5.91271 4.80638 5.70471 5.05705 5.70471H8.72552C8.9762 5.70471 9.18408 5.91271 9.18408 6.16354C9.18408 6.41436 8.9762 6.62236 8.72552 6.62236Z" fill="var(--color-base-light-black)"/>
</svg>
