<svg width="104" height="30" viewBox="0 0 104 30" fill="none" xmlns="http://www.w3.org/2000/svg">
<path d="M1.91637 24V5.81818H5.21005V13.5153H13.6351V5.81818H16.9377V24H13.6351V16.2763H5.21005V24H1.91637ZM36.7663 14.9091C36.7663 16.8681 36.3994 18.546 35.6655 19.9428C34.9375 21.3337 33.9432 22.399 32.6825 23.1388C31.4278 23.8787 30.0044 24.2486 28.4123 24.2486C26.8202 24.2486 25.3938 23.8787 24.1332 23.1388C22.8784 22.3931 21.8841 21.3248 21.1502 19.9339C20.4222 18.5372 20.0582 16.8622 20.0582 14.9091C20.0582 12.95 20.4222 11.2751 21.1502 9.88423C21.8841 8.48745 22.8784 7.41915 24.1332 6.67933C25.3938 5.93951 26.8202 5.5696 28.4123 5.5696C30.0044 5.5696 31.4278 5.93951 32.6825 6.67933C33.9432 7.41915 34.9375 8.48745 35.6655 9.88423C36.3994 11.2751 36.7663 12.95 36.7663 14.9091ZM33.4549 14.9091C33.4549 13.5301 33.2389 12.3671 32.8068 11.4201C32.3807 10.4672 31.7888 9.74811 31.0312 9.26278C30.2737 8.77154 29.4007 8.52592 28.4123 8.52592C27.4239 8.52592 26.5509 8.77154 25.7933 9.26278C25.0357 9.74811 24.4409 10.4672 24.0089 11.4201C23.5827 12.3671 23.3697 13.5301 23.3697 14.9091C23.3697 16.2881 23.5827 17.4541 24.0089 18.407C24.4409 19.3539 25.0357 20.073 25.7933 20.5643C26.5509 21.0496 27.4239 21.2923 28.4123 21.2923C29.4007 21.2923 30.2737 21.0496 31.0312 20.5643C31.7888 20.073 32.3807 19.3539 32.8068 18.407C33.2389 17.4541 33.4549 16.2881 33.4549 14.9091ZM39.8802 24V5.81818H46.6984C48.0952 5.81818 49.2671 6.06084 50.214 6.54616C51.1669 7.03149 51.886 7.71212 52.3714 8.58807C52.8626 9.4581 53.1082 10.4731 53.1082 11.6332C53.1082 12.7991 52.8596 13.8112 52.3625 14.6694C51.8712 15.5217 51.1462 16.1816 50.1874 16.6491C49.2286 17.1108 48.0508 17.3416 46.654 17.3416H41.7979V14.6072H46.2101C47.0269 14.6072 47.6957 14.4948 48.2165 14.2699C48.7374 14.0391 49.1221 13.7047 49.3706 13.2667C49.6251 12.8228 49.7524 12.2783 49.7524 11.6332C49.7524 10.988 49.6251 10.4376 49.3706 9.98189C49.1162 9.52024 48.7285 9.17105 48.2077 8.9343C47.6868 8.69164 47.0151 8.57031 46.1924 8.57031H43.1739V24H39.8802ZM49.273 15.7614L53.7741 24H50.0986L45.6775 15.7614H49.273ZM71.0814 5.81818V24H68.1517L59.5846 11.6154H59.4337V24H56.14V5.81818H59.0874L67.6457 18.2116H67.8055V5.81818H71.0814Z" fill="var(--color-base-main-black)"/>
<path d="M81.0677 21.0361C80.7752 20.7085 81.0159 20.1888 81.4543 20.2015L81.9688 20.2164C82.0967 20.2201 82.2211 20.1744 82.3164 20.0888L95.5956 8.16281C95.6971 8.07162 95.7571 7.94279 95.7615 7.80621L95.8607 4.78844C95.8756 4.33722 96.4315 4.13442 96.7317 4.47069L100.301 8.46715C100.593 8.79396 100.354 9.31253 99.9164 9.30179L97.0295 9.23093C96.9023 9.22781 96.7788 9.27345 96.684 9.35854L83.3639 21.3214C83.2866 21.3908 83.2327 21.4827 83.2099 21.5843L83.0905 22.1151C83.0011 22.512 82.502 22.6422 82.2314 22.3391L81.0677 21.0361Z" fill="var(--color-base-main-black)" stroke="var(--color-base-main-black)"/>
<path d="M97.5513 15.9542C97.9191 16.3662 97.8842 16.9993 97.4733 17.3683L90.7832 23.3767C90.3723 23.7458 89.741 23.711 89.3731 23.2991L86.336 19.8982C85.9681 19.4863 86.003 18.8532 86.4139 18.4842L93.1041 12.4757C93.515 12.1067 94.1463 12.1415 94.5142 12.5534L97.5513 15.9542ZM88.1372 17.8041C87.7263 18.1732 87.6914 18.8063 88.0593 19.2182L89.5814 20.9226C89.9493 21.3345 90.5806 21.3693 90.9915 21.0003L95.1779 17.2405C95.5888 16.8714 95.6237 16.2383 95.2558 15.8264L93.7337 14.122C93.3658 13.71 92.7345 13.6753 92.3236 14.0443L88.1372 17.8041Z" fill="var(--color-base-main-black)"/>
<path d="M95.2558 15.8264L94.8838 16.1605L95.2558 15.8264ZM94.5142 12.5534L94.8862 12.2193L94.5142 12.5534ZM90.7832 23.3767L90.4502 23.0038L90.7832 23.3767ZM97.5513 15.9542L97.1793 16.2883L97.5513 15.9542ZM97.4733 17.3683L97.1403 16.9954L90.4502 23.0038L90.7832 23.3767L91.1162 23.7497L97.8064 17.7412L97.4733 17.3683ZM89.3731 23.2991L89.7451 22.965L86.708 19.5641L86.336 19.8982L85.964 20.2323L89.0011 23.6331L89.3731 23.2991ZM86.4139 18.4842L86.747 18.8571L93.4371 12.8487L93.1041 12.4757L92.771 12.1028L86.0809 18.1112L86.4139 18.4842ZM94.5142 12.5534L94.1422 12.8875L97.1793 16.2883L97.5513 15.9542L97.9233 15.6202L94.8862 12.2193L94.5142 12.5534ZM88.0593 19.2182L87.6873 19.5523L89.2094 21.2567L89.5814 20.9226L89.9534 20.5885L88.4313 18.8841L88.0593 19.2182ZM90.9915 21.0003L91.3245 21.3732L95.5109 17.6134L95.1779 17.2405L94.8449 16.8675L90.6584 20.6274L90.9915 21.0003ZM95.2558 15.8264L95.6278 15.4923L94.1057 13.7879L93.7337 14.122L93.3617 14.4561L94.8838 16.1605L95.2558 15.8264ZM92.3236 14.0443L91.9905 13.6714L87.8041 17.4312L88.1372 17.8041L88.4702 18.1771L92.6566 14.4172L92.3236 14.0443ZM93.7337 14.122L94.1057 13.7879C93.5539 13.17 92.6069 13.1178 91.9905 13.6714L92.3236 14.0443L92.6566 14.4172C92.8621 14.2327 93.1777 14.2501 93.3617 14.4561L93.7337 14.122ZM95.1779 17.2405L95.5109 17.6134C96.1273 17.0598 96.1796 16.1102 95.6278 15.4923L95.2558 15.8264L94.8838 16.1605C95.0677 16.3665 95.0503 16.683 94.8449 16.8675L95.1779 17.2405ZM89.5814 20.9226L89.2094 21.2567C89.7612 21.8746 90.7082 21.9268 91.3245 21.3732L90.9915 21.0003L90.6584 20.6274C90.453 20.8119 90.1373 20.7945 89.9534 20.5885L89.5814 20.9226ZM88.0593 19.2182L88.4313 18.8841C88.2473 18.6781 88.2648 18.3616 88.4702 18.1771L88.1372 17.8041L87.8041 17.4312C87.1878 17.9847 87.1354 18.9344 87.6873 19.5523L88.0593 19.2182ZM93.1041 12.4757L93.4371 12.8487C93.6426 12.6641 93.9582 12.6815 94.1422 12.8875L94.5142 12.5534L94.8862 12.2193C94.3343 11.6014 93.3874 11.5492 92.771 12.1028L93.1041 12.4757ZM86.336 19.8982L86.708 19.5641C86.5241 19.3582 86.5415 19.0416 86.747 18.8571L86.4139 18.4842L86.0809 18.1112C85.4645 18.6648 85.4122 19.6144 85.964 20.2323L86.336 19.8982ZM90.7832 23.3767L90.4502 23.0038C90.2447 23.1883 89.929 23.1709 89.7451 22.965L89.3731 23.2991L89.0011 23.6331C89.5529 24.251 90.4999 24.3032 91.1162 23.7497L90.7832 23.3767ZM97.4733 17.3683L97.8064 17.7412C98.4227 17.1877 98.4751 16.2381 97.9233 15.6202L97.5513 15.9542L97.1793 16.2883C97.3632 16.4943 97.3458 16.8109 97.1403 16.9954L97.4733 17.3683Z" fill="var(--color-base-main-black)"/>
<ellipse cx="28.5" cy="15" rx="5.5" ry="7" fill="var(--color-base-main-black)"/>
</svg>
